<?xml version="1.0" encoding="UTF-8" standalone="no"?>
<!-- Created with Inkscape (http://www.inkscape.org/) -->

<svg
   width="512"
   height="512"
   viewBox="0 0 512 512"
   version="1.1"
   id="svg2284"
   inkscape:version="1.2.2 (b0a8486541, 2022-12-01)"
   sodipodi:docname="bomb.svg"
   inkscape:export-filename="mine.png"
   inkscape:export-xdpi="768"
   inkscape:export-ydpi="768"
   xmlns:inkscape="http://www.inkscape.org/namespaces/inkscape"
   xmlns:sodipodi="http://sodipodi.sourceforge.net/DTD/sodipodi-0.dtd"
   xmlns:xlink="http://www.w3.org/1999/xlink"
   xmlns="http://www.w3.org/2000/svg"
   xmlns:svg="http://www.w3.org/2000/svg">
  <sodipodi:namedview
     id="namedview2286"
     pagecolor="#ffffff"
     bordercolor="#000000"
     borderopacity="0.25"
     inkscape:showpageshadow="2"
     inkscape:pageopacity="0.0"
     inkscape:pagecheckerboard="0"
     inkscape:deskcolor="#d1d1d1"
     inkscape:document-units="px"
     showgrid="false"
     inkscape:zoom="0.77593293"
     inkscape:cx="143.0536"
     inkscape:cy="328.63665"
     inkscape:window-width="1920"
     inkscape:window-height="1011"
     inkscape:window-x="0"
     inkscape:window-y="32"
     inkscape:window-maximized="1"
     inkscape:current-layer="layer1" />
  <defs
     id="defs2281">
    <linearGradient
       inkscape:collect="always"
       id="linearGradient3635">
      <stop
         style="stop-color:#3b3b3b;stop-opacity:1;"
         offset="0"
         id="stop3631" />
      <stop
         style="stop-color:#1a1a1a;stop-opacity:1"
         offset="0.71132064"
         id="stop3633" />
      <stop
         style="stop-color:#040404;stop-opacity:1;"
         offset="1"
         id="stop3831" />
    </linearGradient>
    <radialGradient
       inkscape:collect="always"
       xlink:href="#linearGradient3635"
       id="radialGradient3637"
       cx="7.1943951"
       cy="7.2408752"
       fx="7.1943951"
       fy="7.2408752"
       r="4.2333331"
       gradientTransform="matrix(46.216557,0,0,46.217661,-141.52334,-137.54807)"
       gradientUnits="userSpaceOnUse" />
  </defs>
  <g
     inkscape:label="Layer 1"
     inkscape:groupmode="layer"
     id="layer1">
    <ellipse
       style="fill:url(#radialGradient3637);fill-opacity:1;stroke-width:8.44008;stroke-linecap:round;stroke-linejoin:bevel"
       id="path2457"
       cx="249.77681"
       cy="253.76144"
       rx="151.82898"
       ry="151.83261" />
    <path
       style="fill:#000000;stroke-width:17.0712;stroke-linecap:round;stroke-linejoin:bevel;stroke-dasharray:none"
       d="m 171.2676,383.62788 c 2.44162,15.44986 6.20473,28.12468 13.30727,31.52601 7.91772,3.7917 22.18922,-2.89505 37.6051,-12.19525 A 151.82899,151.83261 0 0 1 171.2676,383.62788 Z"
       id="path3576" />
    <path
       style="fill:#000000;fill-opacity:1;stroke-width:17.0712;stroke-linecap:round;stroke-linejoin:bevel;stroke-dasharray:none"
       d="m 380.90355,330.23196 a 151.82899,151.83261 0 0 1 -45.40784,48.85513 c 20.86916,4.26105 40.61428,6.90581 47.57629,-0.40775 7.06395,-7.42064 3.23976,-27.48243 -2.16845,-48.44738 z"
       id="path3574" />
    <path
       style="fill:#1a1a1a;stroke-width:17.0712;stroke-linecap:round;stroke-linejoin:bevel;stroke-dasharray:none"
       d="m 101.20978,222.82851 c -7.141888,4.78569 -11.981909,9.72982 -12.658591,14.80852 -0.721111,5.41216 3.190318,11.91009 9.507845,18.88596 a 151.82899,151.83261 0 0 1 -0.111227,-2.76156 151.82899,151.83261 0 0 1 3.261973,-30.93292 z"
       id="path3572" />
    <path
       style="fill:#000000;stroke-width:17.0712;stroke-linecap:round;stroke-linejoin:bevel;stroke-dasharray:none"
       d="m 374.04604,166.54133 a 151.82899,151.83261 0 0 1 23.70474,53.26618 c 9.3828,-17.00548 16.41395,-32.97212 11.97285,-41.18213 -4.02811,-7.44651 -18.5586,-10.49789 -35.67759,-12.08405 z"
       id="path3570" />
    <path
       style="fill:#1a1a1a;stroke-width:17.0712;stroke-linecap:round;stroke-linejoin:bevel;stroke-dasharray:none"
       d="m 229.68617,91.294052 c -0.67898,-0.0086 -1.34052,0.03021 -1.98311,0.148388 -5.44667,1.000585 -10.49439,6.883711 -15.2348,15.23467 a 151.82899,151.83261 0 0 1 36.86375,-4.72612 C 242.05078,95.605937 235.27275,91.364743 229.68617,91.294052 Z"
       id="path2563" />
    <path
       style="fill:#000000;stroke-width:17.07;stroke-linecap:round;stroke-linejoin:bevel"
       d="m 287.10392,400.84579 a 151.82899,151.83261 8.8303394e-8 0 1 -31.84109,4.54078 c 6.77162,5.47219 12.99535,8.68336 18.089,7.80273 4.84182,-0.83711 9.41205,-5.5046 13.75209,-12.34351 z"
       id="path3519" />
    <path
       style="fill:#1a1a1a;fill-opacity:1;stroke-width:17.07;stroke-linecap:round;stroke-linejoin:bevel"
       d="m 101.877,288.06754 c -8.099716,14.97857 -13.539375,28.59691 -9.619048,36.02973 3.507662,6.65042 15.350328,9.92146 29.932108,11.80604 A 151.82899,151.83261 8.8303394e-8 0 1 101.877,288.06754 Z"
       id="path3517" />
    <path
       style="fill:#000000;stroke-width:17.07;stroke-linecap:round;stroke-linejoin:bevel"
       d="m 401.40194,245.88457 a 151.82899,151.83261 8.8303394e-8 0 1 0.20388,7.87688 151.82899,151.83261 8.8303394e-8 0 1 -3.31756,31.21094 c 8.77173,-5.27293 14.92846,-10.76189 15.75373,-16.4951 0.90867,-6.31264 -4.46694,-14.1907 -12.64005,-22.59272 z"
       id="path3515" />
    <path
       style="fill:#202020;fill-opacity:1;stroke-width:17.07;stroke-linecap:round;stroke-linejoin:bevel"
       d="m 135.75682,119.92879 c -6.58404,0.10502 -11.79256,1.3659 -14.75293,4.41105 -6.98293,7.1829 -3.66504,26.54942 1.33444,47.05735 a 151.82899,151.83261 8.8303394e-8 0 1 47.59483,-46.66814 c -12.54177,-2.73288 -24.76735,-4.95032 -34.17634,-4.80026 z"
       id="path3513" />
    <path
       style="fill:#202020;fill-opacity:1;stroke-width:17.07;stroke-linecap:round;stroke-linejoin:bevel"
       d="m 313.69994,88.829054 c -9.18628,0.333359 -22.41225,7.301817 -36.14093,15.679606 a 151.82899,151.83261 8.8303394e-8 0 1 56.02771,22.66686 c -2.22961,-17.91893 -5.80057,-33.332127 -13.69648,-37.215903 -1.75889,-0.865139 -3.84587,-1.215641 -6.1903,-1.130563 z"
       id="path2928" />
  </g>
</svg>
