<?xml version="1.0" encoding="UTF-8" standalone="no"?>
<!-- Created with Inkscape (http://www.inkscape.org/) -->

<svg
   width="5632"
   height="2560"
   viewBox="0 0 1490.1331 677.33325"
   version="1.1"
   id="svg5"
   inkscape:version="1.2.2 (b0a8486541, 2022-12-01)"
   sodipodi:docname="tilemap_greenland.svg"
   inkscape:export-filename="tilemap_greenland.png"
   inkscape:export-xdpi="12"
   inkscape:export-ydpi="12"
   xml:space="preserve"
   xmlns:inkscape="http://www.inkscape.org/namespaces/inkscape"
   xmlns:sodipodi="http://sodipodi.sourceforge.net/DTD/sodipodi-0.dtd"
   xmlns="http://www.w3.org/2000/svg"
   xmlns:svg="http://www.w3.org/2000/svg"><sodipodi:namedview
     id="namedview7"
     pagecolor="#ffffff"
     bordercolor="#000000"
     borderopacity="0.25"
     inkscape:showpageshadow="2"
     inkscape:pageopacity="0.0"
     inkscape:pagecheckerboard="0"
     inkscape:deskcolor="#d1d1d1"
     inkscape:document-units="px"
     showgrid="true"
     inkscape:zoom="0.27433372"
     inkscape:cx="3111.1742"
     inkscape:cy="2081.4065"
     inkscape:window-width="1920"
     inkscape:window-height="1043"
     inkscape:window-x="0"
     inkscape:window-y="0"
     inkscape:window-maximized="1"
     inkscape:current-layer="layer1"
     showguides="true"><inkscape:grid
       type="xygrid"
       id="grid4034"
       spacingx="67.733332"
       spacingy="67.733332"
       empspacing="2"
       originx="0"
       originy="0" /></sodipodi:namedview><defs
     id="defs2" /><g
     inkscape:label="tileset"
     inkscape:groupmode="layer"
     id="layer1"><rect
       style="fill:#5fd38d;stroke:none;stroke-width:5.04401;stroke-linecap:round;stroke-linejoin:bevel"
       id="rect234"
       width="1490.1332"
       height="677.33325"
       x="0"
       y="0" /><path
       id="rect950"
       style="fill:#deaa87;stroke-width:0.268847;stroke-linecap:round;stroke-linejoin:bevel"
       d="m 435.50419,419.09994 c 0,0 23.62375,1.82489 38.62913,1.82489 15.00539,0 38.62911,-1.82489 38.62911,-1.82489 9.08044,-0.36841 16.40417,7.31626 16.40417,16.40417 0,0 -3.10735,32.24767 -2.64249,50.98253 0.22416,9.03384 2.64249,26.27583 2.64249,26.27583 1.08696,9.02267 -7.31626,16.40417 -16.40417,16.40417 0,0 -28.61822,3.29003 -46.14578,3.08442 -12.5289,-0.14697 -31.11246,-3.08442 -31.11246,-3.08442 -9.05726,-0.74572 -16.40417,-7.31626 -16.40417,-16.40417 0,0 -2.30766,-24.07061 -2.29993,-39.08325 0.008,-15.01264 2.29993,-38.17511 2.29993,-38.17511 0.46881,-9.07581 7.31626,-16.40417 16.40417,-16.40417 z"
       sodipodi:nodetypes="szsssssssszss" /><path
       id="path3175-3"
       style="fill:#deaa87;stroke:none;stroke-width:0.268847;stroke-linecap:round;stroke-linejoin:bevel"
       d="m 29.104165,12.699997 c -9.08789,-10e-7 -16.40417,7.316276 -16.404169,16.404167 l 2e-6,38.629165 55.033334,3e-6 -3e-6,-55.033331 z"
       sodipodi:nodetypes="sscccs" /><rect
       style="fill:#deaa87;fill-opacity:1;stroke:none;stroke-width:0.529589;stroke-linecap:round;stroke-linejoin:bevel"
       id="rect3581"
       width="67.73333"
       height="67.73333"
       x="677.33331"
       y="67.73333" /><rect
       style="fill:#deaa87;fill-opacity:1;stroke:none;stroke-width:0.529589;stroke-linecap:round;stroke-linejoin:bevel"
       id="rect3647"
       width="67.73333"
       height="67.73333"
       x="880.53333"
       y="67.73333" /><rect
       style="fill:#deaa87;fill-opacity:1;stroke:none;stroke-width:0.529589;stroke-linecap:round;stroke-linejoin:bevel"
       id="rect15750"
       width="67.73333"
       height="67.73333"
       x="677.33344"
       y="203.2" /><rect
       style="fill:#deaa87;fill-opacity:1;stroke:none;stroke-width:0.529589;stroke-linecap:round;stroke-linejoin:bevel"
       id="rect15754"
       width="67.73333"
       height="67.73333"
       x="880.53345"
       y="203.2" /><rect
       style="fill:#deaa87;fill-opacity:1;stroke:none;stroke-width:0.529589;stroke-linecap:round;stroke-linejoin:bevel"
       id="rect15811"
       width="67.73333"
       height="67.73333"
       x="677.33356"
       y="-338.66666"
       transform="scale(1,-1)" /><rect
       style="fill:#deaa87;fill-opacity:1;stroke:none;stroke-width:0.529589;stroke-linecap:round;stroke-linejoin:bevel"
       id="rect15815"
       width="67.73333"
       height="67.73333"
       x="880.53357"
       y="-338.66666"
       transform="scale(1,-1)" /><rect
       style="fill:#deaa87;fill-opacity:1;stroke:none;stroke-width:0.529589;stroke-linecap:round;stroke-linejoin:bevel"
       id="rect15882"
       width="67.73333"
       height="67.73333"
       x="677.3335"
       y="-474.1333"
       transform="scale(1,-1)" /><rect
       style="fill:#deaa87;fill-opacity:1;stroke:none;stroke-width:0.529589;stroke-linecap:round;stroke-linejoin:bevel"
       id="rect15886"
       width="67.73333"
       height="67.73333"
       x="880.53351"
       y="-474.1333"
       transform="scale(1,-1)" /><rect
       style="fill:#deaa87;fill-opacity:1;stroke:none;stroke-width:0.529589;stroke-linecap:round;stroke-linejoin:bevel"
       id="rect23484"
       width="67.73333"
       height="67.73333"
       x="609.59998"
       y="135.46666" /><rect
       style="fill:#deaa87;fill-opacity:1;stroke:none;stroke-width:0.529589;stroke-linecap:round;stroke-linejoin:bevel"
       id="rect23486"
       width="67.73333"
       height="67.73333"
       x="677.33331"
       y="135.46666" /><rect
       style="fill:#deaa87;fill-opacity:1;stroke:none;stroke-width:0.529589;stroke-linecap:round;stroke-linejoin:bevel"
       id="rect23488"
       width="67.73333"
       height="67.73333"
       x="745.06665"
       y="135.46666" /><rect
       style="fill:#deaa87;fill-opacity:1;stroke:none;stroke-width:0.529589;stroke-linecap:round;stroke-linejoin:bevel"
       id="rect23490"
       width="67.73333"
       height="67.73333"
       x="812.79999"
       y="135.46666" /><rect
       style="fill:#deaa87;fill-opacity:1;stroke:none;stroke-width:0.529589;stroke-linecap:round;stroke-linejoin:bevel"
       id="rect23492"
       width="67.73333"
       height="67.73333"
       x="880.53333"
       y="135.46666" /><rect
       style="fill:#deaa87;fill-opacity:1;stroke:none;stroke-width:0.529589;stroke-linecap:round;stroke-linejoin:bevel"
       id="rect23498"
       width="67.73333"
       height="67.73333"
       x="948.26685"
       y="135.46666" /><rect
       style="fill:#deaa87;fill-opacity:1;stroke:none;stroke-width:0.529589;stroke-linecap:round;stroke-linejoin:bevel"
       id="rect23584"
       width="67.73333"
       height="67.73333"
       x="948.26685"
       y="338.66666" /><rect
       style="fill:#deaa87;fill-opacity:1;stroke:none;stroke-width:0.529589;stroke-linecap:round;stroke-linejoin:bevel"
       id="rect23590"
       width="67.73333"
       height="67.73333"
       x="880.53333"
       y="338.66666" /><rect
       style="fill:#deaa87;fill-opacity:1;stroke:none;stroke-width:0.529589;stroke-linecap:round;stroke-linejoin:bevel"
       id="rect23592"
       width="67.73333"
       height="67.73333"
       x="812.79999"
       y="338.66666" /><rect
       style="fill:#deaa87;fill-opacity:1;stroke:none;stroke-width:0.529589;stroke-linecap:round;stroke-linejoin:bevel"
       id="rect23594"
       width="67.73333"
       height="67.73333"
       x="745.06665"
       y="338.66666" /><rect
       style="fill:#deaa87;fill-opacity:1;stroke:none;stroke-width:0.529589;stroke-linecap:round;stroke-linejoin:bevel"
       id="rect23596"
       width="67.73333"
       height="67.73333"
       x="677.33331"
       y="338.66666" /><rect
       style="fill:#deaa87;fill-opacity:1;stroke:none;stroke-width:0.529589;stroke-linecap:round;stroke-linejoin:bevel"
       id="rect23598"
       width="67.73333"
       height="67.73333"
       x="609.59998"
       y="338.66666" /><rect
       style="fill:#deaa87;fill-opacity:1;stroke:none;stroke-width:0.529589;stroke-linecap:round;stroke-linejoin:bevel"
       id="rect23600"
       width="67.73333"
       height="67.73333"
       x="609.59998"
       y="338.66666" /><rect
       style="fill:#deaa87;fill-opacity:1;stroke:none;stroke-width:0.529589;stroke-linecap:round;stroke-linejoin:bevel"
       id="rect493"
       width="67.73333"
       height="67.73333"
       x="677.33331"
       y="-609.59998"
       transform="scale(1,-1)" /><rect
       style="fill:#deaa87;fill-opacity:1;stroke:none;stroke-width:0.529589;stroke-linecap:round;stroke-linejoin:bevel"
       id="rect495"
       width="67.73333"
       height="67.73333"
       x="677.33331"
       y="-677.33331"
       transform="scale(1,-1)" /><rect
       style="fill:#deaa87;fill-opacity:1;stroke:none;stroke-width:0.529589;stroke-linecap:round;stroke-linejoin:bevel"
       id="rect497"
       width="67.73333"
       height="67.73333"
       x="880.53333"
       y="-677.33331"
       transform="scale(1,-1)" /><rect
       style="fill:#deaa87;fill-opacity:1;stroke:none;stroke-width:0.529589;stroke-linecap:round;stroke-linejoin:bevel"
       id="rect499"
       width="67.73333"
       height="67.73333"
       x="880.53333"
       y="-609.59998"
       transform="scale(1,-1)" /><path
       id="path723"
       style="fill:#deaa87;stroke:none;stroke-width:0.269215;stroke-linecap:round;stroke-linejoin:bevel"
       d="m 1083.7333,609.59999 h 67.7333 v -67.73333 h -55.0334 c 0.2687,10.61525 -6.3285,13.4086 -12.6999,12.69993 z"
       sodipodi:nodetypes="cccccc" /><rect
       style="fill:#deaa87;fill-opacity:1;stroke:none;stroke-width:0.529589;stroke-linecap:round;stroke-linejoin:bevel"
       id="rect1116"
       width="67.73333"
       height="67.73333"
       x="1083.7335"
       y="135.46666" /><rect
       style="fill:#deaa87;fill-opacity:1;stroke:none;stroke-width:0.529589;stroke-linecap:round;stroke-linejoin:bevel"
       id="rect1118"
       width="67.73333"
       height="67.73333"
       x="1151.4669"
       y="135.46666" /><rect
       style="fill:#deaa87;fill-opacity:1;stroke:none;stroke-width:0.529589;stroke-linecap:round;stroke-linejoin:bevel"
       id="rect1253"
       width="67.73333"
       height="67.73333"
       x="1083.7335"
       y="-406.39996"
       transform="scale(1,-1)" /><rect
       style="fill:#deaa87;fill-opacity:1;stroke:none;stroke-width:0.529589;stroke-linecap:round;stroke-linejoin:bevel"
       id="rect1255"
       width="67.73333"
       height="67.73333"
       x="1151.4669"
       y="-406.39996"
       transform="scale(1,-1)" /><rect
       style="fill:#deaa87;fill-opacity:1;stroke:none;stroke-width:0.529589;stroke-linecap:round;stroke-linejoin:bevel"
       id="rect1844"
       width="67.73333"
       height="67.73333"
       x="1219.2"
       y="1.090687e-06" /><rect
       style="fill:#deaa87;fill-opacity:1;stroke:none;stroke-width:0.529589;stroke-linecap:round;stroke-linejoin:bevel"
       id="rect1846"
       width="67.73333"
       height="67.73333"
       x="1286.9332"
       y="67.73333" /><rect
       style="fill:#deaa87;fill-opacity:1;stroke:none;stroke-width:0.529589;stroke-linecap:round;stroke-linejoin:bevel"
       id="rect1969"
       width="67.73333"
       height="67.73333"
       x="-1354.6665"
       y="135.46666"
       transform="scale(-1,1)" /><rect
       style="fill:#deaa87;fill-opacity:1;stroke:none;stroke-width:0.529589;stroke-linecap:round;stroke-linejoin:bevel"
       id="rect1971"
       width="67.73333"
       height="67.73333"
       x="-1286.9332"
       y="203.2"
       transform="scale(-1,1)" /><rect
       style="fill:#deaa87;fill-opacity:1;stroke:none;stroke-width:0.529589;stroke-linecap:round;stroke-linejoin:bevel"
       id="rect2094"
       width="67.73333"
       height="67.73333"
       x="-1354.6666"
       y="338.66666"
       transform="scale(-1,1)" /><rect
       style="fill:#deaa87;fill-opacity:1;stroke:none;stroke-width:0.529589;stroke-linecap:round;stroke-linejoin:bevel"
       id="rect2096"
       width="67.73333"
       height="67.73333"
       x="-1422.3999"
       y="338.66666"
       transform="scale(-1,1)" /><rect
       style="fill:#deaa87;fill-opacity:1;stroke:none;stroke-width:0.529589;stroke-linecap:round;stroke-linejoin:bevel"
       id="rect2098"
       width="67.73333"
       height="67.73333"
       x="-1422.3999"
       y="406.39999"
       transform="scale(-1,1)" /><rect
       style="fill:#deaa87;fill-opacity:1;stroke:none;stroke-width:0.529589;stroke-linecap:round;stroke-linejoin:bevel"
       id="rect2100"
       width="67.73333"
       height="67.73333"
       x="-1354.6666"
       y="406.39999"
       transform="scale(-1,1)" /><circle
       style="fill:#ff0000;stroke-width:0.475985;stroke-linecap:round;stroke-linejoin:bevel"
       id="path470"
       cx="67.73333"
       cy="609.59998"
       r="67.73333" /><path
       id="rect591"
       style="fill:#deaa87;fill-opacity:1;stroke:none;stroke-width:0.529589;stroke-linecap:round;stroke-linejoin:bevel"
       d="m 67.73335,67.733332 v 67.733328 67.73332 67.73333 67.73332 H 135.46668 203.2 270.93333 338.66665 V 270.93331 203.19998 135.46666 67.733332 H 270.93333 203.2 135.46668 Z" /><path
       id="path593"
       style="fill:#deaa87;stroke:none;stroke-width:0;stroke-linecap:round;stroke-linejoin:bevel;stroke-opacity:1;stroke-dasharray:none"
       d="m 67.733359,12.699998 v 55.033334 h 67.733331 67.73332 67.73333 67.73332 V 12.699998 c -13.45315,0 -32.99762,1.928235 -32.99762,1.928235 -11.26966,0.658549 -23.44988,-1.665093 -34.7357,-1.928231 -11.15759,-0.260148 -22.14461,-1.554003 -33.44548,-1.560468 -11.30086,-0.0065 -22.88959,1.574797 -34.28785,1.56046 -11.39826,-0.01434 -22.79282,-0.748907 -34.09485,-0.74633 -11.30203,0.0026 -21.41217,0.74633 -33.63851,0.74633 C 124.58733,12.829946 103.54579,14.3199 91.485053,14.230137 80.79861,14.150602 73.312552,12.699998 67.733359,12.699998 Z"
       sodipodi:nodetypes="cccccccsszzzcsc" /><path
       id="path595"
       style="fill:#deaa87;stroke:none;stroke-width:0.269215;stroke-linecap:round;stroke-linejoin:bevel"
       d="m 12.699998,67.733324 c -0.119514,8.335234 1.200166,25.58216 1.686559,36.766456 0.486394,11.1843 -1.933003,19.62789 -1.686559,30.96687 0.246444,11.33898 -1.114026,31.11766 -1.114026,36.7621 0,5.64445 0.821058,19.84765 1.114026,30.97122 0.292968,11.12357 2.340365,29.04323 2.225346,34.00592 -0.115019,4.96268 -2.225346,22.59453 -2.225346,33.72741 0,11.13288 -1.659035,24.52698 -1.659035,30.17142 0,5.64445 1.987044,25.43733 1.659035,37.5619 H 67.733324 V 270.9333 203.19997 135.46665 67.733324 Z"
       sodipodi:nodetypes="czzzzzzzccccccc" /><path
       id="path3087"
       style="fill:#deaa87;stroke:none;stroke-width:0.268847;stroke-linecap:round;stroke-linejoin:bevel"
       d="m 379.08615,13.760049 c 9.40445,2.448509 15.49176,7.737802 15.77529,16.821269 0.38785,12.425628 -1.08609,27.754653 -1.16149,37.15201 l -55.03329,4e-6 V 12.7 c 0,0 31.01505,-1.38846 40.41949,1.060049 z"
       sodipodi:nodetypes="zscccz" /><path
       id="path3265"
       style="fill:#deaa87;stroke:none;stroke-width:0.269215;stroke-linecap:round;stroke-linejoin:bevel"
       d="m 393.69994,67.733334 c 0,0 0.76668,10.637873 0.76668,21.926761 0,11.288885 -0.76668,45.806565 -0.76668,45.806565 0,11.90467 -1.55758,22.07944 -1.55758,33.36833 0,11.28888 1.55758,23.02211 1.55758,34.36499 0,11.34287 1.17514,20.77158 1.17514,32.06047 0,11.28889 -1.17514,24.81576 -1.17514,35.67286 0,10.8571 -1.82132,21.15906 -1.82132,32.44795 0,11.28889 1.82132,28.345 1.82132,35.28537 H 338.66666 V 270.93331 203.19998 135.46666 67.733334 Z"
       sodipodi:nodetypes="czzzzzzzccccccc" /><path
       id="path3437"
       style="fill:#deaa87;stroke:none;stroke-width:0.268847;stroke-linecap:round;stroke-linejoin:bevel"
       d="M 67.733346,393.69994 V 338.66666 H 135.46668 203.2 h 67.73333 67.73332 v 55.03328 c -12.59804,0 -31.83784,-2.07835 -34.66006,-2.07835 -2.82222,0 -21.78437,2.07835 -33.07326,2.07835 -11.28889,0 -20.38213,1.77237 -31.67102,1.77237 -11.28889,0 -24.77342,-1.77237 -36.06231,-1.77237 -11.28889,0 -19.65322,1.77961 -30.94211,1.77961 -11.28888,0 -25.50232,-1.77961 -36.79121,-1.77961 -11.28889,0 -24.34088,-3.98901 -31.49289,-3.77242 -7.152017,0.21659 -23.909098,3.77242 -36.240444,3.77242 z"
       sodipodi:nodetypes="ccccccczzzzzzzc" /><path
       id="path3602"
       style="fill:#deaa87;stroke:none;stroke-width:0.268847;stroke-linecap:round;stroke-linejoin:bevel"
       d="m 36.82506,390.77898 c -8.70235,1.5104 -22.682757,-4.55971 -24.292644,-18.83335 -1.609887,-14.27364 0.16758,-23.76059 0.16758,-33.27897 h 55.033336 v 55.03328 c -14.546195,0 -22.205922,-4.43136 -30.908272,-2.92096 z"
       sodipodi:nodetypes="zzcccz" /><path
       id="path3604"
       style="fill:#deaa87;stroke:none;stroke-width:0.268847;stroke-linecap:round;stroke-linejoin:bevel"
       d="m 374.81333,391.77398 c 7.19739,-0.72335 17.0115,-6.65258 18.15958,-13.42613 2.1518,-12.69531 0.72704,-28.43379 0.72704,-39.68123 l -55.03329,3e-5 v 55.03331 c 10.46266,0 28.94929,-1.20263 36.14667,-1.92598 z"
       sodipodi:nodetypes="zscccz" /><path
       id="path10751"
       style="fill:#deaa87;stroke:none;stroke-width:0.268847;stroke-linecap:round;stroke-linejoin:bevel"
       d="m 29.104162,419.09998 c -9.08789,0 -16.40417,7.31628 -16.404169,16.40417 l 2e-6,38.62916 55.033334,1e-5 -3e-6,-55.03333 z"
       sodipodi:nodetypes="sscccs" /><path
       id="path10753"
       style="fill:#deaa87;stroke:none;stroke-width:0;stroke-linecap:round;stroke-linejoin:bevel;stroke-dasharray:none;stroke-opacity:1"
       d="m 67.733356,419.09998 v 55.03334 h 67.733334 67.73332 67.73333 67.73332 v -55.03334 c -13.45315,0 -32.99762,1.92824 -32.99762,1.92824 -11.26966,0.65855 -23.44988,-1.66509 -34.7357,-1.92823 -11.15759,-0.26015 -22.14461,-1.55401 -33.44548,-1.56047 -11.30086,-0.006 -22.88959,1.5748 -34.28785,1.56046 -11.39826,-0.0143 -22.79282,-0.74891 -34.09485,-0.74633 -11.30203,0.003 -21.41217,0.74633 -33.63851,0.74633 -10.87932,0.12995 -31.92086,1.61991 -43.9816,1.53014 -10.686443,-0.0795 -18.172501,-1.53014 -23.751694,-1.53014 z"
       sodipodi:nodetypes="cccccccsszzzcsc" /><path
       id="path10755"
       style="fill:#deaa87;stroke:none;stroke-width:0.268847;stroke-linecap:round;stroke-linejoin:bevel"
       d="m 379.08615,420.16003 c 9.40445,2.44851 15.49176,7.73781 15.77529,16.82127 0.38785,12.42563 -1.08609,27.75466 -1.16149,37.15201 l -55.03329,1e-5 v -55.03333 c 0,0 31.01505,-1.38846 40.41949,1.06004 z"
       sodipodi:nodetypes="zscccz" /><path
       id="path12402"
       style="fill:#deaa87;stroke:none;stroke-width:0.268847;stroke-linecap:round;stroke-linejoin:bevel"
       d="M 67.733348,529.16664 V 474.13336 H 135.46668 203.2 h 67.73333 67.73332 v 55.03328 c -12.59804,0 -31.83784,-2.07835 -34.66006,-2.07835 -2.82222,0 -21.78437,2.07835 -33.07326,2.07835 -11.28889,0 -20.38213,1.77237 -31.67102,1.77237 -11.28889,0 -24.77342,-1.77237 -36.06231,-1.77237 -11.28889,0 -19.65322,1.77961 -30.94211,1.77961 -11.28888,0 -25.50232,-1.77961 -36.79121,-1.77961 -11.28889,0 -24.34088,-3.98901 -31.49289,-3.77242 -7.15201,0.21659 -23.909096,3.77242 -36.240442,3.77242 z"
       sodipodi:nodetypes="ccccccczzzzzzzc" /><path
       id="path12404"
       style="fill:#deaa87;stroke:none;stroke-width:0.268847;stroke-linecap:round;stroke-linejoin:bevel"
       d="m 36.825062,526.24568 c -8.70235,1.5104 -22.682757,-4.55971 -24.292644,-18.83335 -1.609887,-14.27364 0.16758,-23.76059 0.16758,-33.27897 h 55.033336 v 55.03328 c -14.546195,0 -22.205922,-4.43136 -30.908272,-2.92096 z"
       sodipodi:nodetypes="zzcccz" /><path
       id="path12406"
       style="fill:#deaa87;stroke:none;stroke-width:0.268847;stroke-linecap:round;stroke-linejoin:bevel"
       d="m 374.81333,527.24068 c 7.19739,-0.72335 17.0115,-6.65258 18.15958,-13.42613 2.1518,-12.69531 0.72704,-28.43379 0.72704,-39.68123 l -55.03329,3e-5 v 55.03331 c 10.46266,0 28.94929,-1.20263 36.14667,-1.92598 z"
       sodipodi:nodetypes="zscccz" /><path
       id="path12559"
       style="fill:#deaa87;stroke:none;stroke-width:0.268847;stroke-linecap:round;stroke-linejoin:bevel"
       d="m 435.50416,12.700023 c -9.08789,-10e-7 -16.40417,7.316276 -16.40416,16.404167 l 0,38.629165 55.03333,3e-6 0,-55.033331 z"
       sodipodi:nodetypes="sscccs" /><path
       id="path12561"
       style="fill:#deaa87;stroke:none;stroke-width:0.269215;stroke-linecap:round;stroke-linejoin:bevel"
       d="m 419.1,67.73335 c -0.11952,8.335234 1.20016,25.58216 1.68656,36.76646 0.48639,11.1843 -1.93301,19.62789 -1.68656,30.96687 0.24644,11.33898 -1.11403,31.11766 -1.11403,36.7621 0,5.64445 0.82106,19.84765 1.11403,30.97122 0.29297,11.12357 2.34036,29.04323 2.22534,34.00592 -0.11502,4.96268 -2.22534,22.59453 -2.22534,33.72741 0,11.13288 -1.65904,24.52698 -1.65904,30.17142 0,5.64445 1.98705,25.43733 1.65904,37.5619 h 55.03332 V 270.93333 203.2 135.46668 67.73335 Z"
       sodipodi:nodetypes="czzzzzzzccccccc" /><path
       id="path12563"
       style="fill:#deaa87;stroke:none;stroke-width:0.268847;stroke-linecap:round;stroke-linejoin:bevel"
       d="m 443.22506,390.77901 c -8.70235,1.5104 -22.68276,-4.55971 -24.29264,-18.83335 C 417.32253,357.67202 419.1,348.18507 419.1,338.66669 h 55.03333 v 55.03328 c -14.54619,0 -22.20592,-4.43136 -30.90827,-2.92096 z"
       sodipodi:nodetypes="zzcccz" /><path
       id="path12565"
       style="fill:#deaa87;stroke:none;stroke-width:0.268847;stroke-linecap:round;stroke-linejoin:bevel"
       d="m 514.55281,13.760065 c 9.40445,2.448509 15.49176,7.737802 15.77529,16.821269 0.38785,12.425628 -1.08609,27.754653 -1.16149,37.15201 l -55.03329,4e-6 V 12.700016 c 0,0 31.01505,-1.38846 40.41949,1.060049 z"
       sodipodi:nodetypes="zscccz" /><path
       id="path12567"
       style="fill:#deaa87;stroke:none;stroke-width:0.269215;stroke-linecap:round;stroke-linejoin:bevel"
       d="m 529.1666,67.73335 c 0,0 0.76668,10.637873 0.76668,21.926761 0,11.288889 -0.76668,45.806569 -0.76668,45.806569 0,11.90467 -1.55758,22.07944 -1.55758,33.36833 0,11.28888 1.55758,23.02211 1.55758,34.36499 0,11.34287 1.17514,20.77158 1.17514,32.06047 0,11.28889 -1.17514,24.81576 -1.17514,35.67286 0,10.8571 -1.82132,21.15906 -1.82132,32.44795 0,11.28889 1.82132,28.345 1.82132,35.28537 H 474.13332 V 270.93333 203.2 135.46668 67.73335 Z"
       sodipodi:nodetypes="czzzzzzzccccccc" /><path
       id="path12569"
       style="fill:#deaa87;stroke:none;stroke-width:0.268847;stroke-linecap:round;stroke-linejoin:bevel"
       d="m 510.27999,391.774 c 7.19739,-0.72335 17.0115,-6.65258 18.15958,-13.42613 2.1518,-12.69531 0.72704,-28.43379 0.72704,-39.68123 l -55.03329,3e-5 v 55.03331 c 10.46266,0 28.94929,-1.20263 36.14667,-1.92598 z"
       sodipodi:nodetypes="zscccz" /><path
       id="path13347"
       style="fill:#deaa87;stroke:none;stroke-width:0.268847;stroke-linecap:round;stroke-linejoin:bevel"
       d="m 570.97082,12.699997 c -9.08789,-10e-7 -16.40417,7.316276 -16.40416,16.404167 v 38.629165 l 55.03333,3e-6 V 12.700001 Z"
       sodipodi:nodetypes="sscccs" /><path
       id="path13349"
       style="fill:#deaa87;stroke:none;stroke-width:0.268847;stroke-linecap:round;stroke-linejoin:bevel"
       d="m 1056.4195,13.760049 c 9.4044,2.448509 15.4917,7.737802 15.7753,16.821269 0.3878,12.425628 -1.0861,27.754653 -1.1615,37.15201 l -55.0333,4e-6 V 12.7 c 0,0 31.015,-1.38846 40.4195,1.060049 z"
       sodipodi:nodetypes="zscccz" /><path
       id="path13351"
       style="fill:#deaa87;stroke:none;stroke-width:0.268847;stroke-linecap:round;stroke-linejoin:bevel"
       d="m 1052.1466,527.24068 c 7.1974,-0.72335 17.0115,-6.65258 18.1596,-13.42613 2.1518,-12.69531 0.7271,-28.43379 0.7271,-39.68123 l -55.0333,3e-5 v 55.03331 c 10.4626,0 28.9493,-1.20263 36.1466,-1.92598 z"
       sodipodi:nodetypes="zscccz" /><path
       id="path13353"
       style="fill:#deaa87;stroke:none;stroke-width:0.268847;stroke-linecap:round;stroke-linejoin:bevel"
       d="m 578.69172,526.24564 c -8.70235,1.5104 -22.68276,-4.55971 -24.29264,-18.83335 -1.60989,-14.27364 0.16758,-23.76059 0.16758,-33.27897 h 55.03333 v 55.03328 c -14.54619,0 -22.20592,-4.43136 -30.90827,-2.92096 z"
       sodipodi:nodetypes="zzcccz" /><path
       id="path13823"
       style="fill:#deaa87;stroke:none;stroke-width:0.269215;stroke-linecap:round;stroke-linejoin:bevel"
       d="m 1219.2,609.59999 h -67.7333 v 67.73333 h 55.0334 c 0.2596,-8.85658 2.8678,-11.57795 12.6999,-12.69993 z"
       sodipodi:nodetypes="cccccc" /><path
       id="path13825"
       style="fill:#deaa87;stroke:none;stroke-width:0.269215;stroke-linecap:round;stroke-linejoin:bevel"
       d="m 1219.1999,609.59999 h -67.7333 V 541.86666 H 1206.5 c -1.4907,8.60941 6.3845,11.99962 12.6999,12.69993 z"
       sodipodi:nodetypes="cccccc" /><path
       id="path13827"
       style="fill:#deaa87;stroke:none;stroke-width:0.269215;stroke-linecap:round;stroke-linejoin:bevel"
       d="m 1083.7333,609.59999 h 67.7333 v 67.73333 h -55.0334 c 0.4066,-14.03436 -1.9952,-13.97463 -12.6999,-12.69993 z"
       sodipodi:nodetypes="cccccc" /><path
       style="fill:#deaa87;stroke:none;stroke-width:0.269215;stroke-linecap:round;stroke-linejoin:bevel"
       d="m 554.56666,67.733354 c -0.11951,8.335234 1.20017,25.58216 1.68656,36.766456 0.4864,11.1843 -1.933,19.62789 -1.68656,30.96687 0.24645,11.33898 -1.11402,31.11766 -1.11402,36.7621 0,5.64445 0.82105,19.84765 1.11402,30.97122 0.29297,11.12357 2.34037,29.04323 2.22535,34.00592 -0.11502,4.96268 -2.22535,22.59453 -2.22535,33.72741 0,11.13288 -1.65903,24.52698 -1.65903,30.17142 0,5.64445 1.98704,25.43733 1.65903,37.5619 h 55.03333 V 270.93333 203.2 135.46668 67.733354 Z"
       id="path14907" /><path
       id="path15061"
       style="fill:#deaa87;stroke:none;stroke-width:0.268847;stroke-linecap:round;stroke-linejoin:bevel"
       d="m 554.56662,406.4 h 55.03337 v -67.73334 h -55.03343 c 0,7.78494 2.77685,20.12758 2.84445,31.45621 0.0676,11.32864 -2.84439,28.06926 -2.84439,36.27713 z"
       sodipodi:nodetypes="cccczc" /><path
       id="path15365"
       style="fill:#deaa87;stroke:none;stroke-width:0.268847;stroke-linecap:round;stroke-linejoin:bevel"
       d="m 554.56662,474.13333 h 55.03337 v -67.73334 h -55.03343 c 0,7.78494 -2.7439,23.61731 -2.6763,34.94594 0.0676,11.32864 2.67636,24.57953 2.67636,32.7874 z"
       sodipodi:nodetypes="cccczc" /><path
       id="path15667"
       style="fill:#deaa87;stroke:none;stroke-width:0.269215;stroke-linecap:round;stroke-linejoin:bevel"
       d="m 812.79995,474.13332 h -67.7333 v -67.73333 h 55.0334 c -1.4907,8.60941 6.3845,11.99962 12.6999,12.69993 z"
       sodipodi:nodetypes="cccccc" /><path
       id="path15669"
       style="fill:#deaa87;stroke:none;stroke-width:0.269215;stroke-linecap:round;stroke-linejoin:bevel"
       d="m 677.33329,474.13332 h -67.7333 v -67.73333 h 55.0334 c -1.4907,8.60941 6.3845,11.99962 12.6999,12.69993 z"
       sodipodi:nodetypes="cccccc" /><path
       id="path15671"
       style="fill:#deaa87;stroke:none;stroke-width:0.269215;stroke-linecap:round;stroke-linejoin:bevel"
       d="m 677.33329,338.66666 h -67.7333 v -67.73333 h 55.0334 c -1.4907,8.60941 6.3845,11.99962 12.6999,12.69993 z"
       sodipodi:nodetypes="cccccc" /><path
       id="path15673"
       style="fill:#deaa87;stroke:none;stroke-width:0.269215;stroke-linecap:round;stroke-linejoin:bevel"
       d="m 812.79995,338.66666 h -67.7333 v -67.73333 h 55.0334 c -1.4907,8.60941 6.3845,11.99962 12.6999,12.69993 z"
       sodipodi:nodetypes="cccccc" /><path
       id="path15827"
       style="fill:#deaa87;stroke:none;stroke-width:0.269215;stroke-linecap:round;stroke-linejoin:bevel"
       d="M 948.26668,474.13332 H 1016 v -67.73333 h -55.03342 c 0.2687,10.61525 -6.3285,13.4086 -12.6999,12.69993 z"
       sodipodi:nodetypes="cccccc" /><path
       id="path15829"
       style="fill:#deaa87;stroke:none;stroke-width:0.269215;stroke-linecap:round;stroke-linejoin:bevel"
       d="m 812.8,474.13332 h 67.73332 V 406.39999 H 825.4999 c 0.2687,10.61525 -6.3285,13.4086 -12.6999,12.69993 z"
       sodipodi:nodetypes="cccccc" /><path
       id="path15831"
       style="fill:#deaa87;stroke:none;stroke-width:0.269215;stroke-linecap:round;stroke-linejoin:bevel"
       d="m 812.8,338.66666 h 67.73332 V 270.93333 H 825.4999 c 0.2687,10.61525 -6.3285,13.4086 -12.6999,12.69993 z"
       sodipodi:nodetypes="cccccc" /><path
       id="path15833"
       style="fill:#deaa87;stroke:none;stroke-width:0.269215;stroke-linecap:round;stroke-linejoin:bevel"
       d="M 948.26666,338.66666 H 1016 v -67.73333 h -55.03344 c 0.2687,10.61525 -6.3285,13.4086 -12.6999,12.69993 z"
       sodipodi:nodetypes="cccccc" /><path
       id="path15987"
       style="fill:#deaa87;stroke:none;stroke-width:0.269215;stroke-linecap:round;stroke-linejoin:bevel"
       d="m 677.33329,67.733332 h -67.7333 v 67.733328 h 55.0334 c 0.2596,-8.85658 2.8678,-11.57795 12.6999,-12.69993 z"
       sodipodi:nodetypes="cccccc" /><path
       id="path15989"
       style="fill:#deaa87;stroke:none;stroke-width:0.269215;stroke-linecap:round;stroke-linejoin:bevel"
       d="m 812.79995,67.733332 h -67.7333 v 67.733328 h 55.0334 c 0.2596,-8.85658 2.8678,-11.57795 12.6999,-12.69993 z"
       sodipodi:nodetypes="cccccc" /><path
       id="path15991"
       style="fill:#deaa87;stroke:none;stroke-width:0.269215;stroke-linecap:round;stroke-linejoin:bevel"
       d="m 812.79995,203.2 h -67.7333 v 67.73332 h 55.0334 c 0.2596,-8.85658 2.8678,-11.57795 12.6999,-12.69993 z"
       sodipodi:nodetypes="cccccc" /><path
       id="path15993"
       style="fill:#deaa87;stroke:none;stroke-width:0.269215;stroke-linecap:round;stroke-linejoin:bevel"
       d="m 677.33329,203.2 h -67.7333 v 67.73332 h 55.0334 c 0.2596,-8.85658 2.8678,-11.57795 12.6999,-12.69993 z"
       sodipodi:nodetypes="cccccc" /><path
       id="path16147"
       style="fill:#deaa87;stroke:none;stroke-width:0.269215;stroke-linecap:round;stroke-linejoin:bevel"
       d="m 812.80002,67.733332 h 67.7333 v 67.733328 h -55.0334 c 0.4066,-14.03436 -1.9952,-13.97463 -12.6999,-12.69993 z"
       sodipodi:nodetypes="cccccc" /><path
       id="path16149"
       style="fill:#deaa87;stroke:none;stroke-width:0.269215;stroke-linecap:round;stroke-linejoin:bevel"
       d="M 948.26668,67.733332 H 1016 v 67.733328 h -55.03342 c 0.4066,-14.03436 -1.9952,-13.97463 -12.6999,-12.69993 z"
       sodipodi:nodetypes="cccccc" /><path
       id="path16151"
       style="fill:#deaa87;stroke:none;stroke-width:0.269215;stroke-linecap:round;stroke-linejoin:bevel"
       d="M 948.26666,203.2 H 1016 v 67.73332 h -55.03344 c 0.4066,-14.03436 -1.9952,-13.97463 -12.6999,-12.69993 z"
       sodipodi:nodetypes="cccccc" /><path
       id="path16153"
       style="fill:#deaa87;stroke:none;stroke-width:0.269215;stroke-linecap:round;stroke-linejoin:bevel"
       d="m 812.79998,203.2 h 67.73334 v 67.73332 h -55.03344 c 0.4066,-14.03436 -1.9952,-13.97463 -12.6999,-12.69993 z"
       sodipodi:nodetypes="cccccc" /><path
       id="path16307"
       style="fill:#deaa87;stroke:none;stroke-width:0.269215;stroke-linecap:round;stroke-linejoin:bevel"
       d="m 677.33339,609.59999 h -67.7333 v 67.73333 h 55.0334 c 0.2596,-8.85658 2.8678,-11.57795 12.6999,-12.69993 z"
       sodipodi:nodetypes="cccccc" /><path
       id="path16309"
       style="fill:#deaa87;stroke:none;stroke-width:0.269215;stroke-linecap:round;stroke-linejoin:bevel"
       d="m 677.33329,609.59999 h -67.7333 v -67.73333 h 55.0334 c -1.4907,8.60941 6.3845,11.99962 12.6999,12.69993 z"
       sodipodi:nodetypes="cccccc" /><path
       id="path16311"
       style="fill:#deaa87;stroke:none;stroke-width:0.269215;stroke-linecap:round;stroke-linejoin:bevel"
       d="m 812.79995,609.59999 h -67.7333 v 67.73333 h 55.0334 c 0.2596,-8.85658 2.8678,-11.57795 12.6999,-12.69993 z"
       sodipodi:nodetypes="cccccc" /><path
       id="path16313"
       style="fill:#deaa87;stroke:none;stroke-width:0.269215;stroke-linecap:round;stroke-linejoin:bevel"
       d="m 812.79985,609.59999 h -67.7333 v -67.73333 h 55.0334 c -1.4907,8.60941 6.3845,11.99962 12.6999,12.69993 z"
       sodipodi:nodetypes="cccccc" /><path
       id="path16467"
       style="fill:#deaa87;stroke:none;stroke-width:0.269215;stroke-linecap:round;stroke-linejoin:bevel"
       d="M 948.26668,609.59999 H 1016 v -67.73333 h -55.03342 c 0.2687,10.61525 -6.3285,13.4086 -12.6999,12.69993 z"
       sodipodi:nodetypes="cccccc" /><path
       id="path16469"
       style="fill:#deaa87;stroke:none;stroke-width:0.269215;stroke-linecap:round;stroke-linejoin:bevel"
       d="M 948.26668,609.59999 H 1016 v 67.73333 h -55.03342 c 0.4066,-14.03436 -1.9952,-13.97463 -12.6999,-12.69993 z"
       sodipodi:nodetypes="cccccc" /><path
       id="path16471"
       style="fill:#deaa87;stroke:none;stroke-width:0.269215;stroke-linecap:round;stroke-linejoin:bevel"
       d="m 812.8,609.59999 h 67.73332 V 541.86666 H 825.4999 c 0.2687,10.61525 -6.3285,13.4086 -12.6999,12.69993 z"
       sodipodi:nodetypes="cccccc" /><path
       id="path16473"
       style="fill:#deaa87;stroke:none;stroke-width:0.269215;stroke-linecap:round;stroke-linejoin:bevel"
       d="m 812.8,609.59999 h 67.73332 v 67.73333 H 825.4999 c 0.4066,-14.03436 -1.9952,-13.97463 -12.6999,-12.69993 z"
       sodipodi:nodetypes="cccccc" /><path
       id="path16627"
       style="fill:#deaa87;stroke:none;stroke-width:0.269215;stroke-linecap:round;stroke-linejoin:bevel"
       d="m 1219.1999,203.2 h -67.7333 v 67.73333 H 1206.5 c 0.2596,-8.85658 2.8678,-11.57795 12.6999,-12.69993 z"
       sodipodi:nodetypes="cccccc" /><path
       id="path16629"
       style="fill:#deaa87;stroke:none;stroke-width:0.269215;stroke-linecap:round;stroke-linejoin:bevel"
       d="m 1083.7332,203.2 h 67.7333 v 67.73333 h -55.0334 c 0.4066,-14.03436 -1.9952,-13.97463 -12.6999,-12.69993 z"
       sodipodi:nodetypes="cccccc" /><path
       id="path16631"
       style="fill:#deaa87;stroke:none;stroke-width:0.269215;stroke-linecap:round;stroke-linejoin:bevel"
       d="m 1219.2,67.733332 h -67.7333 v 67.733328 h 55.0334 c 0.2596,-8.85658 2.8678,-11.57795 12.6999,-12.69993 z"
       sodipodi:nodetypes="cccccc" /><path
       id="path16633"
       style="fill:#deaa87;stroke:none;stroke-width:0.269215;stroke-linecap:round;stroke-linejoin:bevel"
       d="m 1083.7333,67.733332 h 67.7333 v 67.733328 h -55.0334 c 0.4066,-14.03436 -1.9952,-13.97463 -12.6999,-12.69993 z"
       sodipodi:nodetypes="cccccc" /><path
       id="path16787"
       style="fill:#deaa87;stroke:none;stroke-width:0.269215;stroke-linecap:round;stroke-linejoin:bevel"
       d="m 1083.7333,474.13332 h 67.7333 v -67.73333 h -55.0334 c 0.2687,10.61525 -6.3285,13.4086 -12.6999,12.69993 z"
       sodipodi:nodetypes="cccccc" /><path
       id="path16789"
       style="fill:#deaa87;stroke:none;stroke-width:0.269215;stroke-linecap:round;stroke-linejoin:bevel"
       d="m 1219.1999,474.13332 h -67.7333 V 406.39999 H 1206.5 c -1.4907,8.60941 6.3845,11.99962 12.6999,12.69993 z"
       sodipodi:nodetypes="cccccc" /><path
       id="path16791"
       style="fill:#deaa87;stroke:none;stroke-width:0.269215;stroke-linecap:round;stroke-linejoin:bevel"
       d="m 1083.7333,338.66666 h 67.7333 v -67.73333 h -55.0334 c 0.2687,10.61525 -6.3285,13.4086 -12.6999,12.69993 z"
       sodipodi:nodetypes="cccccc" /><path
       id="path16793"
       style="fill:#deaa87;stroke:none;stroke-width:0.269215;stroke-linecap:round;stroke-linejoin:bevel"
       d="m 1219.1999,338.66666 h -67.7333 V 270.93333 H 1206.5 c -1.4907,8.60941 6.3845,11.99962 12.6999,12.69993 z"
       sodipodi:nodetypes="cccccc" /><path
       id="path17095"
       style="fill:#deaa87;stroke:none;stroke-width:0.269215;stroke-linecap:round;stroke-linejoin:bevel"
       d="m 1354.6666,67.733332 h -67.7333 V 2e-6 h 55.0334 c -1.4907,8.60941 6.3845,11.99962 12.6999,12.69993 z"
       sodipodi:nodetypes="cccccc" /><path
       id="path17097"
       style="fill:#deaa87;stroke:none;stroke-width:0.269215;stroke-linecap:round;stroke-linejoin:bevel"
       d="m 1219.2,67.733332 h 67.7333 v 67.733328 h -55.0334 c 0.4066,-14.03436 -1.9952,-13.97463 -12.6999,-12.69993 z"
       sodipodi:nodetypes="cccccc" /><path
       id="path17249"
       style="fill:#deaa87;stroke:none;stroke-width:0.269215;stroke-linecap:round;stroke-linejoin:bevel"
       d="m 1219.1999,203.2 h 67.7333 v -67.73333 h -55.0334 c 0.2687,10.61525 -6.3285,13.4086 -12.6999,12.69993 z"
       sodipodi:nodetypes="cccccc" /><path
       id="path17251"
       style="fill:#deaa87;stroke:none;stroke-width:0.269215;stroke-linecap:round;stroke-linejoin:bevel"
       d="m 1354.6666,203.2 h -67.7333 v 67.73333 h 55.0334 c 0.2596,-8.85658 2.8678,-11.57795 12.6999,-12.69993 z"
       sodipodi:nodetypes="cccccc" /><path
       id="path17405"
       style="fill:#deaa87;stroke:none;stroke-width:0.269215;stroke-linecap:round;stroke-linejoin:bevel"
       d="m 1219.2,338.66666 h 67.7333 v -67.73333 h -55.0334 c 0.2687,10.61525 -6.3285,13.4086 -12.6999,12.69993 z"
       sodipodi:nodetypes="cccccc" /><path
       id="path17407"
       style="fill:#deaa87;stroke:none;stroke-width:0.269215;stroke-linecap:round;stroke-linejoin:bevel"
       d="m 1354.6666,338.66666 h -67.7333 v -67.73333 h 55.0334 c -1.4907,8.60941 6.3845,11.99962 12.6999,12.69993 z"
       sodipodi:nodetypes="cccccc" /><path
       id="path17409"
       style="fill:#deaa87;stroke:none;stroke-width:0.269215;stroke-linecap:round;stroke-linejoin:bevel"
       d="m 1219.2,338.66666 h 67.7333 v 67.73333 h -55.0334 c 0.4066,-14.03436 -1.9952,-13.97463 -12.6999,-12.69993 z"
       sodipodi:nodetypes="cccccc" /><path
       id="path17411"
       style="fill:#deaa87;stroke:none;stroke-width:0.269215;stroke-linecap:round;stroke-linejoin:bevel"
       d="m 1354.6666,338.66666 h 67.7333 v -67.73333 h -55.0334 c 0.2687,10.61525 -6.3285,13.4086 -12.6999,12.69993 z"
       sodipodi:nodetypes="cccccc" /><path
       id="path17413"
       style="fill:#deaa87;stroke:none;stroke-width:0.269215;stroke-linecap:round;stroke-linejoin:bevel"
       d="M 1490.1333,338.66666 H 1422.4 v 67.73333 h 55.0334 c 0.2596,-8.85658 2.8678,-11.57795 12.6999,-12.69993 z"
       sodipodi:nodetypes="cccccc" /><path
       id="path17415"
       style="fill:#deaa87;stroke:none;stroke-width:0.269215;stroke-linecap:round;stroke-linejoin:bevel"
       d="m 1490.1332,338.66666 h -67.7333 v -67.73333 h 55.0334 c -1.4907,8.60941 6.3845,11.99962 12.6999,12.69993 z"
       sodipodi:nodetypes="cccccc" /><path
       id="path17417"
       style="fill:#deaa87;stroke:none;stroke-width:0.269215;stroke-linecap:round;stroke-linejoin:bevel"
       d="m 1219.1999,474.13332 h 67.7333 v -67.73333 h -55.0334 c 0.2687,10.61525 -6.3285,13.4086 -12.6999,12.69993 z"
       sodipodi:nodetypes="cccccc" /><path
       id="path17419"
       style="fill:#deaa87;stroke:none;stroke-width:0.269215;stroke-linecap:round;stroke-linejoin:bevel"
       d="m 1354.6666,474.13332 h -67.7333 v 67.73333 h 55.0334 c 0.2596,-8.85658 2.8678,-11.57795 12.6999,-12.69993 z"
       sodipodi:nodetypes="cccccc" /><path
       id="path17421"
       style="fill:#deaa87;stroke:none;stroke-width:0.269215;stroke-linecap:round;stroke-linejoin:bevel"
       d="m 1219.1999,474.13332 h 67.7333 v 67.73333 h -55.0334 c 0.4066,-14.03436 -1.9952,-13.97463 -12.6999,-12.69993 z"
       sodipodi:nodetypes="cccccc" /><path
       id="path17423"
       style="fill:#deaa87;stroke:none;stroke-width:0.269215;stroke-linecap:round;stroke-linejoin:bevel"
       d="M 1490.1333,474.13332 H 1422.4 v 67.73333 h 55.0334 c 0.2596,-8.85658 2.8678,-11.57795 12.6999,-12.69993 z"
       sodipodi:nodetypes="cccccc" /><path
       id="path17425"
       style="fill:#deaa87;stroke:none;stroke-width:0.269215;stroke-linecap:round;stroke-linejoin:bevel"
       d="m 1490.1332,474.13332 h -67.7333 v -67.73333 h 55.0334 c -1.4907,8.60941 6.3845,11.99962 12.6999,12.69993 z"
       sodipodi:nodetypes="cccccc" /><path
       id="path17427"
       style="fill:#deaa87;stroke:none;stroke-width:0.269215;stroke-linecap:round;stroke-linejoin:bevel"
       d="m 1354.6666,474.13332 h 67.7333 v 67.73333 h -55.0334 c 0.4066,-14.03436 -1.9952,-13.97463 -12.6999,-12.69993 z"
       sodipodi:nodetypes="cccccc" /><path
       id="path17581"
       style="fill:#deaa87;stroke:none;stroke-width:0.268847;stroke-linecap:round;stroke-linejoin:bevel"
       d="m 554.56662,609.59999 h 55.03337 v -67.73334 h -55.03343 c 0,7.78494 2.77685,20.12758 2.84445,31.45621 0.0676,11.32864 -2.84439,28.06926 -2.84439,36.27713 z"
       sodipodi:nodetypes="cccczc" /><path
       id="path17583"
       style="fill:#deaa87;stroke:none;stroke-width:0.268847;stroke-linecap:round;stroke-linejoin:bevel"
       d="m 554.56662,677.33332 h 55.03337 v -67.73334 h -55.03343 c 0,7.78494 -2.7439,23.61731 -2.6763,34.94594 0.0676,11.32864 2.67636,24.57953 2.67636,32.7874 z"
       sodipodi:nodetypes="cccczc" /><path
       id="path17737"
       style="fill:#deaa87;stroke:none;stroke-width:0.268847;stroke-linecap:round;stroke-linejoin:bevel"
       d="M 1071.0334,609.6 H 1016 v -67.73334 h 55.0334 c 0,7.78494 1.8825,22.82487 1.5828,32.47745 -0.2997,9.65258 -1.5828,27.04802 -1.5828,35.25589 z"
       sodipodi:nodetypes="cccczc" /><path
       id="path17739"
       style="fill:#deaa87;stroke:none;stroke-width:0.268847;stroke-linecap:round;stroke-linejoin:bevel"
       d="M 1071.0334,677.33333 H 1016 v -67.73334 h 55.0334 c 0,7.78494 -1.7365,33.2867 -1.8041,44.61533 -0.068,11.32864 1.8041,14.91014 1.8041,23.11801 z"
       sodipodi:nodetypes="cccczc" /><path
       id="path18343"
       style="fill:#deaa87;stroke:none;stroke-width:0;stroke-linecap:round;stroke-linejoin:bevel;stroke-dasharray:none;stroke-opacity:1"
       d="m 609.6,12.699998 v 55.033334 h 67.73333 67.73332 67.73333 67.73332 V 12.699998 c -13.45315,0 -32.99762,1.928235 -32.99762,1.928235 -11.26966,0.658549 -23.44988,-1.665093 -34.7357,-1.928231 -11.15759,-0.260148 -22.14461,-1.554003 -33.44548,-1.560468 -11.30086,-0.0065 -22.88959,1.574797 -34.28785,1.56046 -11.39826,-0.01434 -22.79282,-0.748907 -34.09485,-0.74633 -11.30203,0.0026 -21.41217,0.74633 -33.63851,0.74633 -10.87932,0.129952 -31.92086,1.619906 -43.9816,1.530143 -10.68644,-0.07953 -18.1725,-1.530139 -23.75169,-1.530139 z"
       sodipodi:nodetypes="cccccccsszzzcsc" /><path
       id="path18492"
       style="fill:#deaa87;stroke:none;stroke-width:0.268847;stroke-linecap:round;stroke-linejoin:bevel"
       d="m 948.26665,12.699932 v 55.0334 h -67.73334 v -55.0334 c 7.78494,0 22.82487,-1.8825 32.47745,-1.5828 9.65258,0.2997 27.04802,1.5828 35.25589,1.5828 z"
       sodipodi:nodetypes="cccczc" /><path
       id="path18494"
       style="fill:#deaa87;stroke:none;stroke-width:0.268847;stroke-linecap:round;stroke-linejoin:bevel"
       d="m 1015.9999,12.699932 v 55.0334 h -67.73325 v -55.0334 c 7.78494,0 26.99965,1.497924 36.65225,1.797624 9.6525,0.2997 22.8732,-1.797624 31.081,-1.797624 z"
       sodipodi:nodetypes="cccczc" /><path
       id="path18782"
       style="fill:#deaa87;stroke:none;stroke-width:0;stroke-linecap:round;stroke-linejoin:bevel;stroke-dasharray:none;stroke-opacity:1"
       d="m 677.33333,529.16665 v -55.03333 h 67.73333 67.73332 67.73333 67.73335 v 55.03333 c -13.4532,0 -32.99765,-1.92823 -32.99765,-1.92823 -11.26966,-0.65855 -23.44988,1.66509 -34.7357,1.92823 -11.15759,0.26015 -22.14461,1.554 -33.44548,1.56047 -11.30086,0.007 -22.88959,-1.5748 -34.28785,-1.56046 -11.39826,0.0143 -22.79282,0.7489 -34.09485,0.74633 -11.30203,-0.003 -21.41217,-0.74633 -33.63851,-0.74633 -10.87932,-0.12995 -31.92086,-1.61991 -43.9816,-1.53015 -10.68644,0.0795 -18.1725,1.53014 -23.75169,1.53014 z"
       sodipodi:nodetypes="cccccccsszzzcsc" /><path
       id="path18922"
       style="fill:#deaa87;stroke:none;stroke-width:0.268847;stroke-linecap:round;stroke-linejoin:bevel"
       d="m 1016,529.16672 v -55.0334 h -67.73329 v 55.0334 c 7.78494,0 26.99965,-1.49792 36.65225,-1.79762 9.6525,-0.2997 22.87324,1.79762 31.08104,1.79762 z"
       sodipodi:nodetypes="cccczc" /><path
       id="path19063"
       style="fill:#deaa87;stroke:none;stroke-width:0.268847;stroke-linecap:round;stroke-linejoin:bevel"
       d="m 677.33333,529.16669 v -55.03337 h -67.73334 v 55.03343 c 7.78494,0 23.61731,2.7439 34.94594,2.6763 11.32864,-0.0676 24.57953,-2.67636 32.7874,-2.67636 z"
       sodipodi:nodetypes="cccczc" /><path
       id="path19207"
       style="fill:#deaa87;stroke:none;stroke-width:0.269215;stroke-linecap:round;stroke-linejoin:bevel"
       d="m 1071.0333,135.46668 c 0,0 0.7666,10.63787 0.7666,21.92676 0,11.28889 -0.7666,45.80657 -0.7666,45.80657 0,11.90467 -1.5576,22.07944 -1.5576,33.36833 0,11.28888 1.5576,23.02211 1.5576,34.36499 0,11.34287 1.1751,20.77158 1.1751,32.06047 0,11.28889 -1.1751,24.81576 -1.1751,35.67286 0,10.8571 -1.8214,21.15906 -1.8214,32.44795 0,11.28889 1.8214,28.345 1.8214,35.28537 H 1016 v -67.73332 -67.73333 -67.73332 -67.73333 z"
       sodipodi:nodetypes="czzzzzzzccccccc" /><path
       id="path19350"
       style="fill:#deaa87;stroke:none;stroke-width:0.268847;stroke-linecap:round;stroke-linejoin:bevel"
       d="M 1071.0334,135.46667 H 1016 V 67.733332 h 55.0334 c 0,7.78494 1.8825,22.82487 1.5828,32.477448 -0.2997,9.65258 -1.5828,27.04802 -1.5828,35.25589 z"
       sodipodi:nodetypes="cccczc" /><path
       id="path19352"
       style="fill:#deaa87;stroke:none;stroke-width:0.268847;stroke-linecap:round;stroke-linejoin:bevel"
       d="M 1071.0334,474.13333 H 1016 v -67.73334 h 55.0334 c 0,7.78494 -1.7365,33.2867 -1.8041,44.61533 -0.068,11.32864 1.8041,14.91014 1.8041,23.11801 z"
       sodipodi:nodetypes="cccczc" /><path
       id="path426"
       style="fill:#deaa87;stroke:none;stroke-width:0.268847;stroke-linecap:round;stroke-linejoin:bevel"
       d="m 948.26665,12.699932 v 55.0334 h -67.73334 v -55.0334 c 7.78494,0 22.82487,-1.8825 32.47745,-1.5828 9.65258,0.2997 27.04802,1.5828 35.25589,1.5828 z"
       sodipodi:nodetypes="cccczc" /><path
       id="path428"
       style="fill:#deaa87;stroke:none;stroke-width:0.268847;stroke-linecap:round;stroke-linejoin:bevel"
       d="m 1151.4666,12.699932 v 55.0334 h -67.7333 v -55.0334 c 7.7849,0 22.8249,-1.8825 32.4775,-1.5828 9.6525,0.2997 27.048,1.5828 35.2558,1.5828 z"
       sodipodi:nodetypes="cccczc" /><path
       id="path430"
       style="fill:#deaa87;stroke:none;stroke-width:0.268847;stroke-linecap:round;stroke-linejoin:bevel"
       d="m 1151.4666,12.699932 v 55.0334 h 67.7333 v -55.0334 c -7.785,0 -26.9997,1.49792 -36.6523,1.79762 -9.6525,0.2997 -22.8732,-1.79762 -31.081,-1.79762 z"
       sodipodi:nodetypes="cccczc" /><path
       id="path576"
       style="fill:#deaa87;stroke:none;stroke-width:0.268847;stroke-linecap:round;stroke-linejoin:bevel"
       d="m 1151.4667,529.16672 v -55.0334 H 1219.2 v 55.0334 c -7.7849,0 -22.8249,1.8825 -32.4775,1.5828 -9.6525,-0.2997 -27.048,-1.5828 -35.2558,-1.5828 z"
       sodipodi:nodetypes="cccczc" /><path
       id="path578"
       style="fill:#deaa87;stroke:none;stroke-width:0.268847;stroke-linecap:round;stroke-linejoin:bevel"
       d="m 1151.4667,529.16672 v -55.0334 h -67.7333 v 55.0334 c 7.785,0 26.9997,-1.49792 36.6523,-1.79762 9.6525,-0.2997 22.8732,1.79762 31.081,1.79762 z"
       sodipodi:nodetypes="cccczc" /></g><g
     inkscape:groupmode="layer"
     id="layer2"
     inkscape:label="just to see" /></svg>
