<?xml version="1.0" encoding="UTF-8" standalone="no"?>
<!-- Created with Inkscape (http://www.inkscape.org/) -->

<svg
   width="5632"
   height="2560"
   viewBox="0 0 1490.1331 677.33325"
   version="1.1"
   id="svg5"
   inkscape:version="1.2.2 (b0a8486541, 2022-12-01)"
   sodipodi:docname="tilemap_greenland.svg"
   inkscape:export-filename="tilemap_greenland.png"
   inkscape:export-xdpi="12"
   inkscape:export-ydpi="12"
   xml:space="preserve"
   xmlns:inkscape="http://www.inkscape.org/namespaces/inkscape"
   xmlns:sodipodi="http://sodipodi.sourceforge.net/DTD/sodipodi-0.dtd"
   xmlns="http://www.w3.org/2000/svg"
   xmlns:svg="http://www.w3.org/2000/svg"><sodipodi:namedview
     id="namedview7"
     pagecolor="#ffffff"
     bordercolor="#000000"
     borderopacity="0.25"
     inkscape:showpageshadow="2"
     inkscape:pageopacity="0.0"
     inkscape:pagecheckerboard="0"
     inkscape:deskcolor="#d1d1d1"
     inkscape:document-units="px"
     showgrid="true"
     inkscape:zoom="0.19398323"
     inkscape:cx="1348.0546"
     inkscape:cy="1783.6593"
     inkscape:window-width="1920"
     inkscape:window-height="1043"
     inkscape:window-x="0"
     inkscape:window-y="0"
     inkscape:window-maximized="1"
     inkscape:current-layer="layer1"
     showguides="false"><inkscape:grid
       type="xygrid"
       id="grid4034"
       spacingx="67.733332"
       spacingy="67.733332"
       empspacing="2"
       originx="0"
       originy="0" /></sodipodi:namedview><defs
     id="defs2" /><g
     inkscape:label="tileset"
     inkscape:groupmode="layer"
     id="layer1"><rect
       style="fill:#87de87;stroke:none;stroke-width:5.04401;stroke-linecap:round;stroke-linejoin:bevel"
       id="rect234"
       width="1490.1332"
       height="677.33325"
       x="0"
       y="0" /><path
       id="rect950"
       style="fill:#deaa87;stroke-width:0.268847;stroke-linecap:round;stroke-linejoin:bevel"
       d="m 429.15411,412.74994 c 0,0 29.97383,1.82489 44.97921,1.82489 15.00539,0 44.9791,-1.82489 44.9791,-1.82489 9.08044,-0.36841 16.40417,7.31626 16.40417,16.40417 0,0 -3.10735,38.59767 -2.64249,57.33253 0.22416,9.03384 2.64249,32.62578 2.64249,32.62578 1.08696,9.02267 -7.31626,16.40417 -16.40417,16.40417 0,0 -34.96821,3.29003 -52.49577,3.08442 -12.5289,-0.14697 -37.46254,-3.08442 -37.46254,-3.08442 -9.05726,-0.74572 -16.40417,-7.31626 -16.40417,-16.40417 0,0 -2.30766,-30.42056 -2.29993,-45.4332 0.008,-15.01264 2.29993,-44.52511 2.29993,-44.52511 0.46881,-9.07581 7.31626,-16.40417 16.40417,-16.40417 z"
       sodipodi:nodetypes="szsssssssszss" /><rect
       style="fill:#deaa87;stroke:none;stroke-width:0.470638;stroke-linecap:round;stroke-linejoin:bevel"
       id="rect4714"
       width="131.23334"
       height="402.16666"
       x="408.51666"
       y="2.1166666"
       rx="16.404167"
       ry="16.756943" /><rect
       style="fill:#deaa87;stroke:none;stroke-width:0.470638;stroke-linecap:round;stroke-linejoin:bevel"
       id="rect4725"
       width="402.16666"
       height="131.23334"
       x="2.1166666"
       y="408.51666"
       rx="16.756943"
       ry="16.404167" /><path
       id="rect2307"
       style="fill:#deaa87;stroke:none;stroke-width:0.269215;stroke-linecap:round;stroke-linejoin:bevel"
       d="m 609.59999,67.733332 h -65.61667 v 67.733328 h 65.61667 z"
       sodipodi:nodetypes="ccccc" /><path
       id="path3175"
       style="fill:#deaa87;stroke:none;stroke-width:0.268847;stroke-linecap:round;stroke-linejoin:bevel"
       d="m 560.38749,2.1166663 c -9.08789,0 -16.40417,7.3162755 -16.40417,16.4041667 v 49.212499 h 65.61667 V 2.1166663 Z" /><path
       id="path3175-3"
       style="fill:#deaa87;stroke:none;stroke-width:0.268847;stroke-linecap:round;stroke-linejoin:bevel"
       d="M 22.754166,6.3499944 C 13.666276,6.3499937 6.3499963,13.66627 6.3499963,22.754161 v 44.979168 l 61.3833357,3e-6 V 6.3499978 Z"
       sodipodi:nodetypes="sscccs" /><path
       id="path3167"
       style="fill:#deaa87;stroke:none;stroke-width:0.269215;stroke-linecap:round;stroke-linejoin:bevel"
       d="m 677.33332,67.733332 h -67.73333 v 67.733328 h 65.61666 c 0,-1.05809 1.05939,-2.12246 2.11667,-2.12246 z"
       sodipodi:nodetypes="cccccc" /><path
       id="path3172"
       style="fill:#deaa87;stroke:none;stroke-width:0.268847;stroke-linecap:round;stroke-linejoin:bevel"
       d="M 609.59999,2.1166663 V 67.733332 h 67.73333 V 2.1166084 Z"
       sodipodi:nodetypes="ccccc" /><path
       id="path3504"
       style="fill:#deaa87;stroke:none;stroke-width:0.269215;stroke-linecap:round;stroke-linejoin:bevel"
       d="m 812.79998,67.733332 h -67.73333 v 67.733328 h 65.61666 c 0,-1.05809 1.05939,-2.11668 2.11667,-2.11668 z"
       sodipodi:nodetypes="cccccc" /><path
       id="path3506"
       style="fill:#deaa87;stroke:none;stroke-width:0.268847;stroke-linecap:round;stroke-linejoin:bevel"
       d="M 677.33332,2.3016683 V 67.918334 h 67.73333 V 2.3016104 Z"
       sodipodi:nodetypes="ccccc" /><path
       id="path3508"
       style="fill:#deaa87;stroke:none;stroke-width:0.268847;stroke-linecap:round;stroke-linejoin:bevel"
       d="M 745.06665,2.3016683 V 67.918334 h 67.73333 V 2.3016104 Z"
       sodipodi:nodetypes="ccccc" /><rect
       style="fill:#deaa87;fill-opacity:1;stroke:none;stroke-width:0.529589;stroke-linecap:round;stroke-linejoin:bevel"
       id="rect3581"
       width="67.73333"
       height="67.73333"
       x="677.33331"
       y="67.73333" /><path
       id="path3601"
       style="fill:#deaa87;stroke:none;stroke-width:0.269215;stroke-linecap:round;stroke-linejoin:bevel"
       d="m 812.79998,67.733332 h 67.73333 v 67.733328 h -65.61666 c 0,-1.05809 -1.05939,-2.11668 -2.11667,-2.11668 z"
       sodipodi:nodetypes="cccccc" /><path
       id="path3622"
       style="fill:#deaa87;stroke:none;stroke-width:0.268847;stroke-linecap:round;stroke-linejoin:bevel"
       d="M 948.26664,2.3016683 V 67.918334 H 880.53331 V 2.3016104 Z"
       sodipodi:nodetypes="ccccc" /><path
       id="path3624"
       style="fill:#deaa87;stroke:none;stroke-width:0.268847;stroke-linecap:round;stroke-linejoin:bevel"
       d="M 880.53331,2.3016683 V 67.918334 H 812.79998 V 2.3016104 Z"
       sodipodi:nodetypes="ccccc" /><rect
       style="fill:#deaa87;fill-opacity:1;stroke:none;stroke-width:0.529589;stroke-linecap:round;stroke-linejoin:bevel"
       id="rect3647"
       width="67.73333"
       height="67.73333"
       x="880.53333"
       y="67.73333" /><path
       id="path11332"
       style="fill:#deaa87;stroke:none;stroke-width:0.268847;stroke-linecap:round;stroke-linejoin:bevel"
       d="M 1016,2.1166659 V 67.733332 H 948.26665 V 2.116608 Z"
       sodipodi:nodetypes="ccccc" /><path
       id="path11396"
       style="fill:#deaa87;stroke:none;stroke-width:0.269215;stroke-linecap:round;stroke-linejoin:bevel"
       d="M 948.26675,67.733332 H 1016 v 67.733328 h -65.61665 c 0,-1.05809 -1.0594,-2.11667 -2.1166,-2.11667 z"
       sodipodi:nodetypes="cccccc" /><path
       id="path11427"
       style="fill:#deaa87;stroke:none;stroke-width:0.269215;stroke-linecap:round;stroke-linejoin:bevel"
       d="m 1016.0001,67.733343 h 65.6166 v 67.733327 h -65.6166 z"
       sodipodi:nodetypes="ccccc" /><path
       id="path11489"
       style="fill:#deaa87;stroke:none;stroke-width:0.268847;stroke-linecap:round;stroke-linejoin:bevel"
       d="m 1065.2125,2.3016753 c 9.0879,0 16.4042,7.3162755 16.4042,16.4041667 V 67.918341 H 1016 V 2.3016753 Z" /><path
       id="path15744"
       style="fill:#deaa87;stroke:none;stroke-width:0.269215;stroke-linecap:round;stroke-linejoin:bevel"
       d="M 609.60007,203.2 H 543.9834 v 67.73333 h 65.61667 z"
       sodipodi:nodetypes="ccccc" /><path
       id="path15746"
       style="fill:#deaa87;stroke:none;stroke-width:0.269215;stroke-linecap:round;stroke-linejoin:bevel"
       d="m 677.3334,203.2 h -67.73333 v 67.73333 h 65.61666 c 0,-1.05809 1.05939,-2.12246 2.11667,-2.12246 z"
       sodipodi:nodetypes="cccccc" /><path
       id="path15748"
       style="fill:#deaa87;stroke:none;stroke-width:0.269215;stroke-linecap:round;stroke-linejoin:bevel"
       d="m 812.80006,203.2 h -67.73333 v 67.73333 h 65.61666 c 0,-1.05809 1.05939,-2.11668 2.11667,-2.11668 z"
       sodipodi:nodetypes="cccccc" /><rect
       style="fill:#deaa87;fill-opacity:1;stroke:none;stroke-width:0.529589;stroke-linecap:round;stroke-linejoin:bevel"
       id="rect15750"
       width="67.73333"
       height="67.73333"
       x="677.33344"
       y="203.2" /><path
       id="path15752"
       style="fill:#deaa87;stroke:none;stroke-width:0.269215;stroke-linecap:round;stroke-linejoin:bevel"
       d="m 812.80006,203.2 h 67.73333 v 67.73333 h -65.61666 c 0,-1.05809 -1.05939,-2.11668 -2.11667,-2.11668 z"
       sodipodi:nodetypes="cccccc" /><rect
       style="fill:#deaa87;fill-opacity:1;stroke:none;stroke-width:0.529589;stroke-linecap:round;stroke-linejoin:bevel"
       id="rect15754"
       width="67.73333"
       height="67.73333"
       x="880.53345"
       y="203.2" /><path
       id="path15760"
       style="fill:#deaa87;stroke:none;stroke-width:0.269215;stroke-linecap:round;stroke-linejoin:bevel"
       d="M 948.26675,203.2 H 1016 v 67.73333 h -65.61665 c 0,-1.05809 -1.0594,-2.11667 -2.1166,-2.11667 z"
       sodipodi:nodetypes="cccccc" /><path
       id="path15762"
       style="fill:#deaa87;stroke:none;stroke-width:0.269215;stroke-linecap:round;stroke-linejoin:bevel"
       d="m 1016.0001,203.20001 h 65.6166 v 67.73333 h -65.6166 z"
       sodipodi:nodetypes="ccccc" /><path
       id="path15805"
       style="fill:#deaa87;stroke:none;stroke-width:0.269215;stroke-linecap:round;stroke-linejoin:bevel"
       d="m 609.60018,338.66667 h -65.61667 v -67.73333 h 65.61667 z"
       sodipodi:nodetypes="ccccc" /><path
       id="path15807"
       style="fill:#deaa87;stroke:none;stroke-width:0.269215;stroke-linecap:round;stroke-linejoin:bevel"
       d="m 677.33351,338.66667 h -67.73333 v -67.73333 h 65.61666 c 0,1.05809 1.05939,2.12246 2.11667,2.12246 z"
       sodipodi:nodetypes="cccccc" /><path
       id="path15809"
       style="fill:#deaa87;stroke:none;stroke-width:0.269215;stroke-linecap:round;stroke-linejoin:bevel"
       d="m 812.80017,338.66667 h -67.73333 v -67.73333 h 65.61666 c 0,1.05809 1.05939,2.11668 2.11667,2.11668 z"
       sodipodi:nodetypes="cccccc" /><rect
       style="fill:#deaa87;fill-opacity:1;stroke:none;stroke-width:0.529589;stroke-linecap:round;stroke-linejoin:bevel"
       id="rect15811"
       width="67.73333"
       height="67.73333"
       x="677.33356"
       y="-338.66666"
       transform="scale(1,-1)" /><path
       id="path15813"
       style="fill:#deaa87;stroke:none;stroke-width:0.269215;stroke-linecap:round;stroke-linejoin:bevel"
       d="m 812.80017,338.66667 h 67.73333 v -67.73333 h -65.61666 c 0,1.05809 -1.05939,2.11668 -2.11667,2.11668 z"
       sodipodi:nodetypes="cccccc" /><rect
       style="fill:#deaa87;fill-opacity:1;stroke:none;stroke-width:0.529589;stroke-linecap:round;stroke-linejoin:bevel"
       id="rect15815"
       width="67.73333"
       height="67.73333"
       x="880.53357"
       y="-338.66666"
       transform="scale(1,-1)" /><path
       id="path15821"
       style="fill:#deaa87;stroke:none;stroke-width:0.269215;stroke-linecap:round;stroke-linejoin:bevel"
       d="m 948.26685,338.66669 h 67.73325 v -67.73333 h -65.61665 c 0,1.05809 -1.0594,2.11667 -2.1166,2.11667 z"
       sodipodi:nodetypes="cccccc" /><path
       id="path15823"
       style="fill:#deaa87;stroke:none;stroke-width:0.269215;stroke-linecap:round;stroke-linejoin:bevel"
       d="m 1016.0002,338.66668 h 65.6166 v -67.73333 h -65.6166 z"
       sodipodi:nodetypes="ccccc" /><path
       id="path15876"
       style="fill:#deaa87;stroke:none;stroke-width:0.269215;stroke-linecap:round;stroke-linejoin:bevel"
       d="m 609.60013,474.13332 h -65.61667 v -67.73333 h 65.61667 z"
       sodipodi:nodetypes="ccccc" /><path
       id="path15878"
       style="fill:#deaa87;stroke:none;stroke-width:0.269215;stroke-linecap:round;stroke-linejoin:bevel"
       d="m 677.33346,474.13332 h -67.73333 v -67.73333 h 65.61666 c 0,1.05809 1.05939,2.12246 2.11667,2.12246 z"
       sodipodi:nodetypes="cccccc" /><path
       id="path15880"
       style="fill:#deaa87;stroke:none;stroke-width:0.269215;stroke-linecap:round;stroke-linejoin:bevel"
       d="m 812.80012,474.13332 h -67.73333 v -67.73333 h 65.61666 c 0,1.05809 1.05939,2.11668 2.11667,2.11668 z"
       sodipodi:nodetypes="cccccc" /><rect
       style="fill:#deaa87;fill-opacity:1;stroke:none;stroke-width:0.529589;stroke-linecap:round;stroke-linejoin:bevel"
       id="rect15882"
       width="67.73333"
       height="67.73333"
       x="677.3335"
       y="-474.1333"
       transform="scale(1,-1)" /><path
       id="path15884"
       style="fill:#deaa87;stroke:none;stroke-width:0.269215;stroke-linecap:round;stroke-linejoin:bevel"
       d="m 812.80012,474.13332 h 67.73333 v -67.73333 h -65.61666 c 0,1.05809 -1.05939,2.11668 -2.11667,2.11668 z"
       sodipodi:nodetypes="cccccc" /><rect
       style="fill:#deaa87;fill-opacity:1;stroke:none;stroke-width:0.529589;stroke-linecap:round;stroke-linejoin:bevel"
       id="rect15886"
       width="67.73333"
       height="67.73333"
       x="880.53351"
       y="-474.1333"
       transform="scale(1,-1)" /><path
       id="path15892"
       style="fill:#deaa87;stroke:none;stroke-width:0.269215;stroke-linecap:round;stroke-linejoin:bevel"
       d="M 948.26675,474.13334 H 1016 v -67.73333 h -65.61665 c 0,1.05809 -1.0594,2.11667 -2.1166,2.11667 z"
       sodipodi:nodetypes="cccccc" /><path
       id="path15894"
       style="fill:#deaa87;stroke:none;stroke-width:0.269215;stroke-linecap:round;stroke-linejoin:bevel"
       d="m 1016.0001,474.13333 h 65.6166 V 406.4 h -65.6166 z"
       sodipodi:nodetypes="ccccc" /><path
       id="path16683"
       style="fill:#deaa87;stroke:none;stroke-width:0.268847;stroke-linecap:round;stroke-linejoin:bevel"
       d="m 560.38777,539.74998 c -9.08789,0 -16.40417,-7.31628 -16.40417,-16.40417 v -49.2125 h 65.61667 v 65.61667 z" /><path
       id="path16685"
       style="fill:#deaa87;stroke:none;stroke-width:0.268847;stroke-linecap:round;stroke-linejoin:bevel"
       d="m 609.60027,539.74998 v -65.61667 h 67.73333 v 65.61673 z"
       sodipodi:nodetypes="ccccc" /><path
       id="path16687"
       style="fill:#deaa87;stroke:none;stroke-width:0.268847;stroke-linecap:round;stroke-linejoin:bevel"
       d="m 677.3336,539.56498 v -65.61667 h 67.73333 v 65.61673 z"
       sodipodi:nodetypes="ccccc" /><path
       id="path16689"
       style="fill:#deaa87;stroke:none;stroke-width:0.268847;stroke-linecap:round;stroke-linejoin:bevel"
       d="m 745.06693,539.56498 v -65.61667 h 67.73333 v 65.61673 z"
       sodipodi:nodetypes="ccccc" /><path
       id="path16691"
       style="fill:#deaa87;stroke:none;stroke-width:0.268847;stroke-linecap:round;stroke-linejoin:bevel"
       d="m 948.26692,539.56498 v -65.61667 h -67.73333 v 65.61673 z"
       sodipodi:nodetypes="ccccc" /><path
       id="path16693"
       style="fill:#deaa87;stroke:none;stroke-width:0.268847;stroke-linecap:round;stroke-linejoin:bevel"
       d="m 880.53359,539.56498 v -65.61667 h -67.73333 v 65.61673 z"
       sodipodi:nodetypes="ccccc" /><path
       id="path16699"
       style="fill:#deaa87;stroke:none;stroke-width:0.268847;stroke-linecap:round;stroke-linejoin:bevel"
       d="m 1016.0002,539.75 v -65.61667 h -67.73335 v 65.61672 z"
       sodipodi:nodetypes="ccccc" /><path
       id="path16701"
       style="fill:#deaa87;stroke:none;stroke-width:0.268847;stroke-linecap:round;stroke-linejoin:bevel"
       d="m 1065.2127,539.56499 c 9.0879,0 16.4042,-7.31628 16.4042,-16.40417 v -49.2125 h -65.6167 v 65.61667 z" /><path
       id="path22525"
       style="fill:#deaa87;stroke:none;stroke-width:0.269215;stroke-linecap:round;stroke-linejoin:bevel"
       d="m 609.59999,406.39999 h -65.61667 v -67.73333 h 65.61667 z"
       sodipodi:nodetypes="ccccc" /><path
       id="path22527"
       style="fill:#deaa87;stroke:none;stroke-width:0.269215;stroke-linecap:round;stroke-linejoin:bevel"
       d="m 609.59999,203.19999 h -65.61667 v -67.73333 h 65.61667 z"
       sodipodi:nodetypes="ccccc" /><path
       id="path22602"
       style="fill:#deaa87;stroke:none;stroke-width:0.269215;stroke-linecap:round;stroke-linejoin:bevel"
       d="m 609.59999,203.19999 h -65.61667 v -67.73333 h 65.61667 z"
       sodipodi:nodetypes="ccccc" /><path
       id="path23404"
       style="fill:#deaa87;stroke:none;stroke-width:0.269215;stroke-linecap:round;stroke-linejoin:bevel"
       d="m 1016.0001,135.46667 h 65.6166 V 203.2 h -65.6166 z"
       sodipodi:nodetypes="ccccc" /><path
       id="path23406"
       style="fill:#deaa87;stroke:none;stroke-width:0.269215;stroke-linecap:round;stroke-linejoin:bevel"
       d="m 1016.0001,338.66667 h 65.6166 V 406.4 h -65.6166 z"
       sodipodi:nodetypes="ccccc" /><rect
       style="fill:#deaa87;fill-opacity:1;stroke:none;stroke-width:0.529589;stroke-linecap:round;stroke-linejoin:bevel"
       id="rect23484"
       width="67.73333"
       height="67.73333"
       x="609.59998"
       y="135.46666" /><rect
       style="fill:#deaa87;fill-opacity:1;stroke:none;stroke-width:0.529589;stroke-linecap:round;stroke-linejoin:bevel"
       id="rect23486"
       width="67.73333"
       height="67.73333"
       x="677.33331"
       y="135.46666" /><rect
       style="fill:#deaa87;fill-opacity:1;stroke:none;stroke-width:0.529589;stroke-linecap:round;stroke-linejoin:bevel"
       id="rect23488"
       width="67.73333"
       height="67.73333"
       x="745.06665"
       y="135.46666" /><rect
       style="fill:#deaa87;fill-opacity:1;stroke:none;stroke-width:0.529589;stroke-linecap:round;stroke-linejoin:bevel"
       id="rect23490"
       width="67.73333"
       height="67.73333"
       x="812.79999"
       y="135.46666" /><rect
       style="fill:#deaa87;fill-opacity:1;stroke:none;stroke-width:0.529589;stroke-linecap:round;stroke-linejoin:bevel"
       id="rect23492"
       width="67.73333"
       height="67.73333"
       x="880.53333"
       y="135.46666" /><rect
       style="fill:#deaa87;fill-opacity:1;stroke:none;stroke-width:0.529589;stroke-linecap:round;stroke-linejoin:bevel"
       id="rect23498"
       width="67.73333"
       height="67.73333"
       x="948.26685"
       y="135.46666" /><rect
       style="fill:#deaa87;fill-opacity:1;stroke:none;stroke-width:0.529589;stroke-linecap:round;stroke-linejoin:bevel"
       id="rect23584"
       width="67.73333"
       height="67.73333"
       x="948.26685"
       y="338.66666" /><rect
       style="fill:#deaa87;fill-opacity:1;stroke:none;stroke-width:0.529589;stroke-linecap:round;stroke-linejoin:bevel"
       id="rect23590"
       width="67.73333"
       height="67.73333"
       x="880.53333"
       y="338.66666" /><rect
       style="fill:#deaa87;fill-opacity:1;stroke:none;stroke-width:0.529589;stroke-linecap:round;stroke-linejoin:bevel"
       id="rect23592"
       width="67.73333"
       height="67.73333"
       x="812.79999"
       y="338.66666" /><rect
       style="fill:#deaa87;fill-opacity:1;stroke:none;stroke-width:0.529589;stroke-linecap:round;stroke-linejoin:bevel"
       id="rect23594"
       width="67.73333"
       height="67.73333"
       x="745.06665"
       y="338.66666" /><rect
       style="fill:#deaa87;fill-opacity:1;stroke:none;stroke-width:0.529589;stroke-linecap:round;stroke-linejoin:bevel"
       id="rect23596"
       width="67.73333"
       height="67.73333"
       x="677.33331"
       y="338.66666" /><rect
       style="fill:#deaa87;fill-opacity:1;stroke:none;stroke-width:0.529589;stroke-linecap:round;stroke-linejoin:bevel"
       id="rect23598"
       width="67.73333"
       height="67.73333"
       x="609.59998"
       y="338.66666" /><rect
       style="fill:#deaa87;fill-opacity:1;stroke:none;stroke-width:0.529589;stroke-linecap:round;stroke-linejoin:bevel"
       id="rect23600"
       width="67.73333"
       height="67.73333"
       x="609.59998"
       y="338.66666" /><path
       id="path376"
       style="fill:#deaa87;stroke:none;stroke-width:0.269215;stroke-linecap:round;stroke-linejoin:bevel"
       d="m 677.33332,609.59999 h -67.73333 v -67.73333 h 65.61666 c 0,1.05809 1.05939,2.12246 2.11667,2.12246 z"
       sodipodi:nodetypes="cccccc" /><path
       id="path378"
       style="fill:#deaa87;stroke:none;stroke-width:0.269215;stroke-linecap:round;stroke-linejoin:bevel"
       d="m 812.79998,609.59999 h -67.73333 v -67.73333 h 65.61666 c 0,1.05809 1.05939,2.12246 2.11667,2.12246 z"
       sodipodi:nodetypes="cccccc" /><path
       id="path380"
       style="fill:#deaa87;stroke:none;stroke-width:0.269215;stroke-linecap:round;stroke-linejoin:bevel"
       d="m 948.26657,609.59999 h 67.73333 v -67.73333 h -65.61666 c 0,1.05809 -1.05939,2.12246 -2.11667,2.12246 z"
       sodipodi:nodetypes="cccccc" /><path
       id="path382"
       style="fill:#deaa87;stroke:none;stroke-width:0.269215;stroke-linecap:round;stroke-linejoin:bevel"
       d="m 812.79998,609.59999 h 67.73326 v -67.73333 h -65.61666 c 0,1.05809 -1.0594,2.12246 -2.1166,2.12246 z"
       sodipodi:nodetypes="cccccc" /><path
       id="path384"
       style="fill:#deaa87;stroke:none;stroke-width:0.269215;stroke-linecap:round;stroke-linejoin:bevel"
       d="m 677.33332,609.59999 h -67.73333 v 67.73333 h 65.61666 c 0,-1.05809 1.05939,-2.12246 2.11667,-2.12246 z"
       sodipodi:nodetypes="cccccc" /><path
       id="path386"
       style="fill:#deaa87;stroke:none;stroke-width:0.269215;stroke-linecap:round;stroke-linejoin:bevel"
       d="m 812.79998,609.59999 h -67.73333 v 67.73333 h 65.61666 c 0,-1.05809 1.05939,-2.12246 2.11667,-2.12246 z"
       sodipodi:nodetypes="cccccc" /><path
       id="path388"
       style="fill:#deaa87;stroke:none;stroke-width:0.269215;stroke-linecap:round;stroke-linejoin:bevel"
       d="m 948.26657,609.59999 h 67.73333 v 67.73333 h -65.61666 c 0,-1.05809 -1.05939,-2.12246 -2.11667,-2.12246 z"
       sodipodi:nodetypes="cccccc" /><path
       id="path390"
       style="fill:#deaa87;stroke:none;stroke-width:0.269215;stroke-linecap:round;stroke-linejoin:bevel"
       d="m 812.79998,609.59999 h 67.73326 v 67.73333 h -65.61666 c 0,-1.05809 -1.0594,-2.12246 -2.1166,-2.12246 z"
       sodipodi:nodetypes="cccccc" /><rect
       style="fill:#deaa87;fill-opacity:1;stroke:none;stroke-width:0.529589;stroke-linecap:round;stroke-linejoin:bevel"
       id="rect493"
       width="67.73333"
       height="67.73333"
       x="677.33331"
       y="-609.59998"
       transform="scale(1,-1)" /><rect
       style="fill:#deaa87;fill-opacity:1;stroke:none;stroke-width:0.529589;stroke-linecap:round;stroke-linejoin:bevel"
       id="rect495"
       width="67.73333"
       height="67.73333"
       x="677.33331"
       y="-677.33331"
       transform="scale(1,-1)" /><rect
       style="fill:#deaa87;fill-opacity:1;stroke:none;stroke-width:0.529589;stroke-linecap:round;stroke-linejoin:bevel"
       id="rect497"
       width="67.73333"
       height="67.73333"
       x="880.53333"
       y="-677.33331"
       transform="scale(1,-1)" /><rect
       style="fill:#deaa87;fill-opacity:1;stroke:none;stroke-width:0.529589;stroke-linecap:round;stroke-linejoin:bevel"
       id="rect499"
       width="67.73333"
       height="67.73333"
       x="880.53333"
       y="-609.59998"
       transform="scale(1,-1)" /><path
       id="path606"
       style="fill:#deaa87;stroke:none;stroke-width:0.269215;stroke-linecap:round;stroke-linejoin:bevel"
       d="m 609.59999,609.59999 h -65.61667 v -67.73333 h 65.61667 z"
       sodipodi:nodetypes="ccccc" /><path
       id="path608"
       style="fill:#deaa87;stroke:none;stroke-width:0.269215;stroke-linecap:round;stroke-linejoin:bevel"
       d="m 609.59999,677.33332 h -65.61667 v -67.73333 h 65.61667 z"
       sodipodi:nodetypes="ccccc" /><path
       id="path610"
       style="fill:#deaa87;stroke:none;stroke-width:0.269215;stroke-linecap:round;stroke-linejoin:bevel"
       d="m 1016,609.59999 h 65.6167 V 541.86666 H 1016 Z"
       sodipodi:nodetypes="ccccc" /><path
       id="path612"
       style="fill:#deaa87;stroke:none;stroke-width:0.269215;stroke-linecap:round;stroke-linejoin:bevel"
       d="m 1016,677.33332 h 65.6167 V 609.59999 H 1016 Z"
       sodipodi:nodetypes="ccccc" /><path
       id="path723"
       style="fill:#deaa87;stroke:none;stroke-width:0.269215;stroke-linecap:round;stroke-linejoin:bevel"
       d="m 1083.7333,609.59999 h 67.7333 V 541.86666 H 1085.85 c 0,1.05809 -1.0594,2.12246 -2.1167,2.12246 z"
       sodipodi:nodetypes="cccccc" /><path
       id="path725"
       style="fill:#deaa87;stroke:none;stroke-width:0.269215;stroke-linecap:round;stroke-linejoin:bevel"
       d="m 1219.1999,609.59999 h -67.7333 v -67.73333 h 65.6166 c 0,1.05809 1.0594,2.12246 2.1167,2.12246 z"
       sodipodi:nodetypes="cccccc" /><path
       id="path727"
       style="fill:#deaa87;stroke:none;stroke-width:0.269215;stroke-linecap:round;stroke-linejoin:bevel"
       d="m 1219.1999,609.59999 h -67.7333 v 67.73333 h 65.6166 c 0,-1.05809 1.0594,-2.12246 2.1167,-2.12246 z"
       sodipodi:nodetypes="cccccc" /><path
       id="path729"
       style="fill:#deaa87;stroke:none;stroke-width:0.269215;stroke-linecap:round;stroke-linejoin:bevel"
       d="m 1083.7333,609.59999 h 67.7333 v 67.73333 H 1085.85 c 0,-1.05809 -1.0594,-2.12246 -2.1167,-2.12246 z"
       sodipodi:nodetypes="cccccc" /><path
       id="path989"
       style="fill:#deaa87;stroke:none;stroke-width:0.268847;stroke-linecap:round;stroke-linejoin:bevel"
       d="m 1151.4668,2.116673 v 65.616666 h -67.7334 V 2.1166151 Z"
       sodipodi:nodetypes="ccccc" /><path
       id="path991"
       style="fill:#deaa87;stroke:none;stroke-width:0.268847;stroke-linecap:round;stroke-linejoin:bevel"
       d="m 1219.2001,2.116673 v 65.616666 h -67.7334 V 2.1166151 Z"
       sodipodi:nodetypes="ccccc" /><path
       id="path1108"
       style="fill:#deaa87;stroke:none;stroke-width:0.269215;stroke-linecap:round;stroke-linejoin:bevel"
       d="m 1219.2001,67.733339 h -67.7333 v 67.733321 h 65.6167 c 0,-1.05809 1.0594,-2.11668 2.1166,-2.11668 z"
       sodipodi:nodetypes="cccccc" /><path
       id="path1110"
       style="fill:#deaa87;stroke:none;stroke-width:0.269215;stroke-linecap:round;stroke-linejoin:bevel"
       d="m 1083.7334,67.733339 h 67.7334 v 67.733321 h -65.6167 c 0,-1.05809 -1.0594,-2.11668 -2.1167,-2.11668 z"
       sodipodi:nodetypes="cccccc" /><path
       id="path1112"
       style="fill:#deaa87;stroke:none;stroke-width:0.269215;stroke-linecap:round;stroke-linejoin:bevel"
       d="m 1219.2001,203.20001 h -67.7333 v 67.73331 h 65.6167 c 0,-1.05809 1.0594,-2.11668 2.1166,-2.11668 z"
       sodipodi:nodetypes="cccccc" /><path
       id="path1114"
       style="fill:#deaa87;stroke:none;stroke-width:0.269215;stroke-linecap:round;stroke-linejoin:bevel"
       d="m 1083.7334,203.20001 h 67.7334 v 67.73331 h -65.6167 c 0,-1.05809 -1.0594,-2.11668 -2.1167,-2.11668 z"
       sodipodi:nodetypes="cccccc" /><rect
       style="fill:#deaa87;fill-opacity:1;stroke:none;stroke-width:0.529589;stroke-linecap:round;stroke-linejoin:bevel"
       id="rect1116"
       width="67.73333"
       height="67.73333"
       x="1083.7335"
       y="135.46666" /><rect
       style="fill:#deaa87;fill-opacity:1;stroke:none;stroke-width:0.529589;stroke-linecap:round;stroke-linejoin:bevel"
       id="rect1118"
       width="67.73333"
       height="67.73333"
       x="1151.4669"
       y="135.46666" /><path
       id="path1241"
       style="fill:#deaa87;stroke:none;stroke-width:0.268847;stroke-linecap:round;stroke-linejoin:bevel"
       d="m 1151.4668,539.74998 v -65.61666 h -67.7334 v 65.61672 z"
       sodipodi:nodetypes="ccccc" /><path
       id="path1243"
       style="fill:#deaa87;stroke:none;stroke-width:0.268847;stroke-linecap:round;stroke-linejoin:bevel"
       d="m 1219.2001,539.74998 v -65.61666 h -67.7334 v 65.61672 z"
       sodipodi:nodetypes="ccccc" /><path
       id="path1245"
       style="fill:#deaa87;stroke:none;stroke-width:0.269215;stroke-linecap:round;stroke-linejoin:bevel"
       d="m 1219.2001,474.13332 h -67.7333 V 406.4 h 65.6167 c 0,1.05809 1.0594,2.11668 2.1166,2.11668 z"
       sodipodi:nodetypes="cccccc" /><path
       id="path1247"
       style="fill:#deaa87;stroke:none;stroke-width:0.269215;stroke-linecap:round;stroke-linejoin:bevel"
       d="m 1083.7334,474.13332 h 67.7334 V 406.4 h -65.6167 c 0,1.05809 -1.0594,2.11668 -2.1167,2.11668 z"
       sodipodi:nodetypes="cccccc" /><path
       id="path1249"
       style="fill:#deaa87;stroke:none;stroke-width:0.269215;stroke-linecap:round;stroke-linejoin:bevel"
       d="m 1219.2001,338.66665 h -67.7333 v -67.73331 h 65.6167 c 0,1.05809 1.0594,2.11668 2.1166,2.11668 z"
       sodipodi:nodetypes="cccccc" /><path
       id="path1251"
       style="fill:#deaa87;stroke:none;stroke-width:0.269215;stroke-linecap:round;stroke-linejoin:bevel"
       d="m 1083.7334,338.66665 h 67.7334 v -67.73331 h -65.6167 c 0,1.05809 -1.0594,2.11668 -2.1167,2.11668 z"
       sodipodi:nodetypes="cccccc" /><rect
       style="fill:#deaa87;fill-opacity:1;stroke:none;stroke-width:0.529589;stroke-linecap:round;stroke-linejoin:bevel"
       id="rect1253"
       width="67.73333"
       height="67.73333"
       x="1083.7335"
       y="-406.39996"
       transform="scale(1,-1)" /><rect
       style="fill:#deaa87;fill-opacity:1;stroke:none;stroke-width:0.529589;stroke-linecap:round;stroke-linejoin:bevel"
       id="rect1255"
       width="67.73333"
       height="67.73333"
       x="1151.4669"
       y="-406.39996"
       transform="scale(1,-1)" /><path
       id="path1725"
       style="fill:#deaa87;stroke:none;stroke-width:0.269215;stroke-linecap:round;stroke-linejoin:bevel"
       d="m 1219.1999,67.733331 h 67.7334 v 67.733309 h -65.6167 c 0,-1.05809 -1.0594,-2.11668 -2.1167,-2.11668 z"
       sodipodi:nodetypes="cccccc" /><path
       id="path1727"
       style="fill:#deaa87;stroke:none;stroke-width:0.269215;stroke-linecap:round;stroke-linejoin:bevel"
       d="m 1354.6666,67.733309 h -67.7334 V 0 h 65.6167 c 0,1.05809 1.0594,2.11668 2.1167,2.11668 z"
       sodipodi:nodetypes="cccccc" /><rect
       style="fill:#deaa87;fill-opacity:1;stroke:none;stroke-width:0.529589;stroke-linecap:round;stroke-linejoin:bevel"
       id="rect1844"
       width="67.73333"
       height="67.73333"
       x="1219.2"
       y="1.090687e-06" /><rect
       style="fill:#deaa87;fill-opacity:1;stroke:none;stroke-width:0.529589;stroke-linecap:round;stroke-linejoin:bevel"
       id="rect1846"
       width="67.73333"
       height="67.73333"
       x="1286.9332"
       y="67.73333" /><path
       id="path1965"
       style="fill:#deaa87;stroke:none;stroke-width:0.269215;stroke-linecap:round;stroke-linejoin:bevel"
       d="m 1354.6666,203.19999 h -67.7334 v 67.73331 h 65.6167 c 0,-1.05809 1.0594,-2.11668 2.1167,-2.11668 z"
       sodipodi:nodetypes="cccccc" /><path
       id="path1967"
       style="fill:#deaa87;stroke:none;stroke-width:0.269215;stroke-linecap:round;stroke-linejoin:bevel"
       d="m 1219.1999,203.19997 h 67.7334 v -67.73331 h -65.6167 c 0,1.05809 -1.0594,2.11668 -2.1167,2.11668 z"
       sodipodi:nodetypes="cccccc" /><rect
       style="fill:#deaa87;fill-opacity:1;stroke:none;stroke-width:0.529589;stroke-linecap:round;stroke-linejoin:bevel"
       id="rect1969"
       width="67.73333"
       height="67.73333"
       x="-1354.6665"
       y="135.46666"
       transform="scale(-1,1)" /><rect
       style="fill:#deaa87;fill-opacity:1;stroke:none;stroke-width:0.529589;stroke-linecap:round;stroke-linejoin:bevel"
       id="rect1971"
       width="67.73333"
       height="67.73333"
       x="-1286.9332"
       y="203.2"
       transform="scale(-1,1)" /><rect
       style="fill:#deaa87;fill-opacity:1;stroke:none;stroke-width:0.529589;stroke-linecap:round;stroke-linejoin:bevel"
       id="rect2094"
       width="67.73333"
       height="67.73333"
       x="-1354.6666"
       y="338.66666"
       transform="scale(-1,1)" /><rect
       style="fill:#deaa87;fill-opacity:1;stroke:none;stroke-width:0.529589;stroke-linecap:round;stroke-linejoin:bevel"
       id="rect2096"
       width="67.73333"
       height="67.73333"
       x="-1422.3999"
       y="338.66666"
       transform="scale(-1,1)" /><rect
       style="fill:#deaa87;fill-opacity:1;stroke:none;stroke-width:0.529589;stroke-linecap:round;stroke-linejoin:bevel"
       id="rect2098"
       width="67.73333"
       height="67.73333"
       x="-1422.3999"
       y="406.39999"
       transform="scale(-1,1)" /><rect
       style="fill:#deaa87;fill-opacity:1;stroke:none;stroke-width:0.529589;stroke-linecap:round;stroke-linejoin:bevel"
       id="rect2100"
       width="67.73333"
       height="67.73333"
       x="-1354.6666"
       y="406.39999"
       transform="scale(-1,1)" /><path
       id="path2227"
       style="fill:#deaa87;stroke:none;stroke-width:0.269215;stroke-linecap:round;stroke-linejoin:bevel"
       d="m 1219.1999,338.66665 h 67.7334 v -67.73331 h -65.6167 c 0,1.05809 -1.0594,2.11668 -2.1167,2.11668 z"
       sodipodi:nodetypes="cccccc" /><path
       id="path2229"
       style="fill:#deaa87;stroke:none;stroke-width:0.269215;stroke-linecap:round;stroke-linejoin:bevel"
       d="m 1354.6666,338.66663 h -67.7334 v -67.73331 h 65.6167 c 0,1.05809 1.0594,2.11668 2.1167,2.11668 z"
       sodipodi:nodetypes="cccccc" /><path
       id="path2231"
       style="fill:#deaa87;stroke:none;stroke-width:0.269215;stroke-linecap:round;stroke-linejoin:bevel"
       d="M 1354.6666,338.66663 H 1422.4 v -67.73331 h -65.6167 c 0,1.05809 -1.0594,2.11668 -2.1167,2.11668 z"
       sodipodi:nodetypes="cccccc" /><path
       id="path2233"
       style="fill:#deaa87;stroke:none;stroke-width:0.269215;stroke-linecap:round;stroke-linejoin:bevel"
       d="m 1490.1333,338.66663 h -67.7334 v -67.73331 h 65.6167 c 0,1.05809 1.0594,2.11668 2.1167,2.11668 z"
       sodipodi:nodetypes="cccccc" /><path
       id="path2364"
       style="fill:#deaa87;stroke:none;stroke-width:0.269215;stroke-linecap:round;stroke-linejoin:bevel"
       d="m 1490.1333,338.66665 h -67.7334 v 67.73331 h 65.6167 c 0,-1.05809 1.0594,-2.11668 2.1167,-2.11668 z"
       sodipodi:nodetypes="cccccc" /><path
       id="path2496"
       style="fill:#deaa87;stroke:none;stroke-width:0.269215;stroke-linecap:round;stroke-linejoin:bevel"
       d="m 1490.1333,474.1333 h -67.7334 v -67.73331 h 65.6167 c 0,1.05809 1.0594,2.11668 2.1167,2.11668 z"
       sodipodi:nodetypes="cccccc" /><path
       id="path2498"
       style="fill:#deaa87;stroke:none;stroke-width:0.269215;stroke-linecap:round;stroke-linejoin:bevel"
       d="m 1490.1333,474.13332 h -67.7334 v 67.73331 h 65.6167 c 0,-1.05809 1.0594,-2.11668 2.1167,-2.11668 z"
       sodipodi:nodetypes="cccccc" /><path
       id="path2500"
       style="fill:#deaa87;stroke:none;stroke-width:0.269215;stroke-linecap:round;stroke-linejoin:bevel"
       d="M 1354.6666,474.13332 H 1422.4 v 67.73331 h -65.6167 c 0,-1.05809 -1.0594,-2.11668 -2.1167,-2.11668 z"
       sodipodi:nodetypes="cccccc" /><path
       id="path2502"
       style="fill:#deaa87;stroke:none;stroke-width:0.269215;stroke-linecap:round;stroke-linejoin:bevel"
       d="m 1354.6667,474.13332 h -67.7334 v 67.73331 h 65.6167 c 0,-1.05809 1.0594,-2.11668 2.1167,-2.11668 z"
       sodipodi:nodetypes="cccccc" /><path
       id="path2504"
       style="fill:#deaa87;stroke:none;stroke-width:0.269215;stroke-linecap:round;stroke-linejoin:bevel"
       d="m 1219.2,474.13332 h 67.7334 v 67.73331 h -65.6167 c 0,-1.05809 -1.0594,-2.11668 -2.1167,-2.11668 z"
       sodipodi:nodetypes="cccccc" /><path
       id="path2506"
       style="fill:#deaa87;stroke:none;stroke-width:0.269215;stroke-linecap:round;stroke-linejoin:bevel"
       d="m 1219.2,474.1333 h 67.7334 v -67.73331 h -65.6167 c 0,1.05809 -1.0594,2.11668 -2.1167,2.11668 z"
       sodipodi:nodetypes="cccccc" /><path
       id="path2508"
       style="fill:#deaa87;stroke:none;stroke-width:0.269215;stroke-linecap:round;stroke-linejoin:bevel"
       d="m 1219.1999,338.66665 h 67.7334 v 67.73331 h -65.6167 c 0,-1.05809 -1.0594,-2.11668 -2.1167,-2.11668 z"
       sodipodi:nodetypes="cccccc" /><circle
       style="fill:#ff0000;stroke-width:0.475985;stroke-linecap:round;stroke-linejoin:bevel"
       id="path470"
       cx="67.73333"
       cy="609.59998"
       r="67.73333" /><path
       id="rect591"
       style="fill:#deaa87;fill-opacity:1;stroke:none;stroke-width:0.529589;stroke-linecap:round;stroke-linejoin:bevel"
       d="m 67.73335,67.733332 v 67.733328 67.73332 67.73333 67.73332 H 135.46668 203.2 270.93333 338.66665 V 270.93331 203.19998 135.46666 67.733332 H 270.93333 203.2 135.46668 Z" /><path
       id="path593"
       style="fill:#deaa87;stroke:none;stroke-width:0.268847;stroke-linecap:round;stroke-linejoin:bevel"
       d="m 67.733359,6.350007 v 61.383325 h 67.733331 67.73332 67.73333 67.73332 V 6.350007 c 0,0 -45.15688,0.2452847 -67.73332,0 -22.58177,-0.2453426 -45.15439,-1.906062 -67.73333,-1.471969 -22.61453,0.434776 -45.13881,4.080763 -67.73332,4.080763 -22.59452,0 -67.733331,-2.608794 -67.733331,-2.608794 z"
       sodipodi:nodetypes="cccccccsssc" /><path
       id="path595"
       style="fill:#deaa87;stroke:none;stroke-width:0.269215;stroke-linecap:round;stroke-linejoin:bevel"
       d="M 6.3499991 67.733324 L 6.3499991 135.46665 L 6.3499991 203.19997 L 6.3499991 270.9333 L 6.3499991 338.66662 L 67.733324 338.66662 L 67.733324 270.9333 L 67.733324 203.19997 L 67.733324 135.46665 L 67.733324 67.733324 L 6.3499991 67.733324 z " /><path
       id="path3087"
       style="fill:#deaa87;stroke:none;stroke-width:0.268847;stroke-linecap:round;stroke-linejoin:bevel"
       d="m 383.64583,6.349994 c 9.08789,-10e-7 16.40417,7.316275 16.40417,16.404166 v 44.979168 l -61.38334,4e-6 V 6.349997 Z"
       sodipodi:nodetypes="sscccs" /><path
       id="path3265"
       style="fill:#deaa87;stroke:none;stroke-width:0.269215;stroke-linecap:round;stroke-linejoin:bevel"
       d="m 400.04998,67.733334 v 67.733326 67.73332 67.73333 67.73332 H 338.66666 V 270.93331 203.19998 135.46666 67.733334 Z" /><path
       id="path3437"
       style="fill:#deaa87;stroke:none;stroke-width:0.268847;stroke-linecap:round;stroke-linejoin:bevel"
       d="M 67.733346,400.04998 V 338.66666 H 135.46668 203.2 h 67.73333 67.73332 v 61.38332 H 270.93333 203.2 135.46668 Z" /><path
       id="path3602"
       style="fill:#deaa87;stroke:none;stroke-width:0.268847;stroke-linecap:round;stroke-linejoin:bevel"
       d="m 22.754166,400.05 c -9.08789,0 -16.4041697,-7.31628 -16.4041697,-16.40417 V 338.66666 H 67.733332 v 61.38333 z"
       sodipodi:nodetypes="sscccs" /><path
       id="path3604"
       style="fill:#deaa87;stroke:none;stroke-width:0.268847;stroke-linecap:round;stroke-linejoin:bevel"
       d="m 383.64583,400.04999 c 9.08789,0 16.40417,-7.31627 16.40417,-16.40416 v -44.97917 l -61.38334,-10e-6 v 61.38334 z"
       sodipodi:nodetypes="sscccs" /></g><g
     inkscape:groupmode="layer"
     id="layer2"
     inkscape:label="just to see" /></svg>
